<svg xmlns="http://www.w3.org/2000/svg" xmlns:xlink="http://www.w3.org/1999/xlink" xmlns:lucid="lucid" width="1250" height="2062"><g transform="translate(0 1276)" lucid:page-tab-id="0_0"><path d="M126 720c-3.3 0-6-2.7-6-6V-294c0-3.3 2.7-6 6-6h68c3.3 0 6 2.7 6 6V714c0 3.3-2.7 6-6 6z" stroke="#5e5e5e" stroke-width="3" fill="#fff"/><use xlink:href="#a" transform="matrix(6.123233995736766e-17,-1,1,6.123233995736766e-17,131.99999999999997,708) translate(457.9074074074074 31.77777777777778)"/><path d="M164.67 720c-3.32 0-6-2.7-6-6v-48c0-3.3 2.68-6 6-6h30.66c3.32 0 6 2.7 6 6v48c0 3.3-2.68 6-6 6z" stroke="#5e5e5e" stroke-width="3" fill="#fff"/><use xlink:href="#b" transform="matrix(6.123233995736766e-17,-1,1,6.123233995736766e-17,170.66666666666686,708.0000000000001) translate(-4.749999999999993 12.61111111111111)"/><path d="M126 660c-3.3 0-6-2.7-6-6v-48c0-3.3 2.7-6 6-6h28c3.3 0 6 2.7 6 6v48c0 3.3-2.7 6-6 6z" stroke="#5e5e5e" stroke-width="3" fill="#fff"/><use xlink:href="#c" transform="matrix(6.123233995736766e-17,-1,1,6.123233995736766e-17,132.00000000000023,648) translate(-1.0123456790123413 12.444444444444443)"/><path d="M164.67 660c-3.32 0-6-2.7-6-6v-48c0-3.3 2.68-6 6-6h30.66c3.32 0 6 2.7 6 6v48c0 3.3-2.68 6-6 6z" stroke="#5e5e5e" stroke-width="3" fill="#fff"/><use xlink:href="#d" transform="matrix(6.123233995736766e-17,-1,1,6.123233995736766e-17,170.66666666666686,648.0000000000001) translate(-5.333333333333329 12.61111111111111)"/><path d="M126 600c-3.3 0-6-2.7-6-6v-48c0-3.3 2.7-6 6-6h28c3.3 0 6 2.7 6 6v48c0 3.3-2.7 6-6 6z" stroke="#5e5e5e" stroke-width="3" fill="#fff"/><use xlink:href="#e" transform="matrix(6.123233995736766e-17,-1,1,6.123233995736766e-17,132.00000000000023,588) translate(-0.42901234567900914 12.444444444444443)"/><path d="M164.67 600c-3.32 0-6-2.7-6-6v-48c0-3.3 2.68-6 6-6h30.66c3.32 0 6 2.7 6 6v48c0 3.3-2.68 6-6 6z" stroke="#5e5e5e" stroke-width="3" fill="#fff"/><use xlink:href="#f" transform="matrix(6.123233995736766e-17,-1,1,6.123233995736766e-17,170.66666666666686,588.0000000000001) translate(-5.333333333333329 12.61111111111111)"/><path d="M126 540c-3.3 0-6-2.7-6-6v-48c0-3.3 2.7-6 6-6h28c3.3 0 6 2.7 6 6v48c0 3.3-2.7 6-6 6z" stroke="#5e5e5e" stroke-width="3" fill="#fff"/><use xlink:href="#g" transform="matrix(6.123233995736766e-17,-1,1,6.123233995736766e-17,132.00000000000017,528) translate(0.7592592592592631 12.444444444444443)"/><path d="M163.33 480c-3.3 0-6-2.7-6-6v-48c0-3.3 2.7-6 6-6H194c3.3 0 6 2.7 6 6v48c0 3.3-2.7 6-6 6z" stroke="#5e5e5e" stroke-width="3" fill="#fff"/><use xlink:href="#h" transform="matrix(6.123233995736766e-17,-1,1,6.123233995736766e-17,169.33333333333348,468.00000000000006) translate(-5.333333333333329 12.61111111111111)"/><path d="M126 480c-3.3 0-6-2.7-6-6v-48c0-3.3 2.7-6 6-6h28c3.3 0 6 2.7 6 6v48c0 3.3-2.7 6-6 6z" stroke="#5e5e5e" stroke-width="3" fill="#fff"/><use xlink:href="#i" transform="matrix(6.123233995736766e-17,-1,1,6.123233995736766e-17,132.00000000000017,468.00000000000006) translate(-5.333333333333329 12.444444444444443)"/><path d="M163.33 420c-3.3 0-6-2.7-6-6v-48c0-3.3 2.7-6 6-6H194c3.3 0 6 2.7 6 6v48c0 3.3-2.7 6-6 6z" stroke="#5e5e5e" stroke-width="3" fill="#fff"/><use xlink:href="#j" transform="matrix(6.123233995736766e-17,-1,1,6.123233995736766e-17,169.3333333333335,408.00000000000006) translate(-5.333333333333329 12.61111111111111)"/><path d="M126 420c-3.3 0-6-2.7-6-6v-48c0-3.3 2.7-6 6-6h28c3.3 0 6 2.7 6 6v48c0 3.3-2.7 6-6 6z" stroke="#5e5e5e" stroke-width="3" fill="#fff"/><use xlink:href="#k" transform="matrix(6.123233995736766e-17,-1,1,6.123233995736766e-17,132.0000000000002,408.00000000000006) translate(-5.333333333333329 12.444444444444443)"/><path d="M163.33 360c-3.3 0-6-2.7-6-6v-48c0-3.3 2.7-6 6-6H194c3.3 0 6 2.7 6 6v48c0 3.3-2.7 6-6 6z" stroke="#5e5e5e" stroke-width="3" fill="#fff"/><use xlink:href="#l" transform="matrix(6.123233995736766e-17,-1,1,6.123233995736766e-17,169.33333333333348,348.0000000000001) translate(0.7592592592592666 12.444444444444441)"/><path d="M126 360c-3.3 0-6-2.7-6-6v-48c0-3.3 2.7-6 6-6h28c3.3 0 6 2.7 6 6v48c0 3.3-2.7 6-6 6z" stroke="#5e5e5e" stroke-width="3" fill="#fff"/><use xlink:href="#c" transform="matrix(6.123233995736766e-17,-1,1,6.123233995736766e-17,132.00000000000006,348.00000000000006) translate(-1.0123456790123413 12.444444444444443)"/><path d="M163.33 300c-3.3 0-6-2.7-6-6v-48c0-3.3 2.7-6 6-6H194c3.3 0 6 2.7 6 6v48c0 3.3-2.7 6-6 6z" stroke="#5e5e5e" stroke-width="3" fill="#fff"/><use xlink:href="#m" transform="matrix(6.123233995736766e-17,-1,1,6.123233995736766e-17,169.33333333333348,288.0000000000001) translate(-1.0123456790123413 12.61111111111111)"/><path d="M126 300c-3.3 0-6-2.7-6-6v-48c0-3.3 2.7-6 6-6h28c3.3 0 6 2.7 6 6v48c0 3.3-2.7 6-6 6z" stroke="#5e5e5e" stroke-width="3" fill="#fff"/><use xlink:href="#n" transform="matrix(6.123233995736766e-17,-1,1,6.123233995736766e-17,132.00000000000006,288.00000000000006) translate(-5.333333333333329 12.444444444444443)"/><path d="M163.33 240c-3.3 0-6-2.7-6-6v-48c0-3.3 2.7-6 6-6H194c3.3 0 6 2.7 6 6v48c0 3.3-2.7 6-6 6z" stroke="#5e5e5e" stroke-width="3" fill="#fff"/><use xlink:href="#o" transform="matrix(6.123233995736766e-17,-1,1,6.123233995736766e-17,169.33333333333348,228.00000000000006) translate(-1.0123456790123413 12.61111111111111)"/><path d="M126 240c-3.3 0-6-2.7-6-6v-48c0-3.3 2.7-6 6-6h28c3.3 0 6 2.7 6 6v48c0 3.3-2.7 6-6 6z" stroke="#5e5e5e" stroke-width="3" fill="#fff"/><use xlink:href="#g" transform="matrix(6.123233995736766e-17,-1,1,6.123233995736766e-17,132.00000000000006,228.00000000000006) translate(0.7592592592592631 12.444444444444443)"/><path d="M163.33 180c-3.3 0-6-2.7-6-6v-48c0-3.3 2.7-6 6-6H194c3.3 0 6 2.7 6 6v48c0 3.3-2.7 6-6 6z" stroke="#5e5e5e" stroke-width="3" fill="#fff"/><use xlink:href="#p" transform="matrix(6.123233995736766e-17,-1,1,6.123233995736766e-17,169.33333333333348,168.0000000000001) translate(-1.422839506172835 12.61111111111111)"/><path d="M126 180c-3.3 0-6-2.7-6-6v-48c0-3.3 2.7-6 6-6h28c3.3 0 6 2.7 6 6v48c0 3.3-2.7 6-6 6z" stroke="#5e5e5e" stroke-width="3" fill="#fff"/><use xlink:href="#q" transform="matrix(6.123233995736766e-17,-1,1,6.123233995736766e-17,132.00000000000006,168) translate(-5.333333333333329 12.444444444444443)"/><path d="M163.33 120c-3.3 0-6-2.7-6-6V66c0-3.3 2.7-6 6-6H194c3.3 0 6 2.7 6 6v48c0 3.3-2.7 6-6 6z" stroke="#5e5e5e" stroke-width="3" fill="#fff"/><use xlink:href="#r" transform="matrix(6.123233995736766e-17,-1,1,6.123233995736766e-17,169.33333333333348,108.00000000000011) translate(-1.422839506172835 12.61111111111111)"/><path d="M126 120c-3.3 0-6-2.7-6-6V66c0-3.3 2.7-6 6-6h28c3.3 0 6 2.7 6 6v48c0 3.3-2.7 6-6 6z" stroke="#5e5e5e" stroke-width="3" fill="#fff"/><use xlink:href="#s" transform="matrix(6.123233995736766e-17,-1,1,6.123233995736766e-17,132.00000000000006,108.00000000000001) translate(-0.42901234567900914 12.444444444444443)"/><path d="M163.33 60c-3.3 0-6-2.7-6-6V6c0-3.3 2.7-6 6-6H194c3.3 0 6 2.7 6 6v48c0 3.3-2.7 6-6 6z" stroke="#5e5e5e" stroke-width="3" fill="#fff"/><use xlink:href="#t" transform="matrix(6.123233995736766e-17,-1,1,6.123233995736766e-17,169.33333333333343,48.00000000000014) translate(-4.879629629629626 12.61111111111111)"/><path d="M126 60c-3.3 0-6-2.7-6-6V6c0-3.3 2.7-6 6-6h28c3.3 0 6 2.7 6 6v48c0 3.3-2.7 6-6 6z" stroke="#5e5e5e" stroke-width="3" fill="#fff"/><use xlink:href="#u" transform="matrix(6.123233995736766e-17,-1,1,6.123233995736766e-17,132.00000000000003,48) translate(-0.42901234567900914 12.444444444444443)"/><path d="M163.33 0c-3.3 0-6-2.7-6-6v-48c0-3.3 2.7-6 6-6H194c3.3 0 6 2.7 6 6v48c0 3.3-2.7 6-6 6z" stroke="#5e5e5e" stroke-width="3" fill="#fff"/><use xlink:href="#v" transform="matrix(6.123233995736766e-17,-1,1,6.123233995736766e-17,169.33333333333343,-11.999999999999972) translate(-5.333333333333329 12.61111111111111)"/><path d="M126 0c-3.3 0-6-2.7-6-6v-48c0-3.3 2.7-6 6-6h28c3.3 0 6 2.7 6 6v48c0 3.3-2.7 6-6 6z" stroke="#5e5e5e" stroke-width="3" fill="#fff"/><use xlink:href="#w" transform="matrix(6.123233995736766e-17,-1,1,6.123233995736766e-17,132.00000000000003,-11.999999999999886) translate(-1.422839506172835 12.444444444444443)"/><path d="M163.33-60c-3.3 0-6-2.7-6-6v-48c0-3.3 2.7-6 6-6H194c3.3 0 6 2.7 6 6v48c0 3.3-2.7 6-6 6z" stroke="#5e5e5e" stroke-width="3" fill="#fff"/><use xlink:href="#x" transform="matrix(6.123233995736766e-17,-1,1,6.123233995736766e-17,169.33333333333331,-71.99999999999999) translate(-4.879629629629626 12.61111111111111)"/><path d="M126-60c-3.3 0-6-2.7-6-6v-48c0-3.3 2.7-6 6-6h28c3.3 0 6 2.7 6 6v48c0 3.3-2.7 6-6 6z" stroke="#5e5e5e" stroke-width="3" fill="#fff"/><use xlink:href="#y" transform="matrix(6.123233995736766e-17,-1,1,6.123233995736766e-17,132.00000000000006,-71.99999999999989) translate(-1.0123456790123413 12.444444444444443)"/><path d="M163.33-120c-3.3 0-6-2.7-6-6v-48c0-3.3 2.7-6 6-6H194c3.3 0 6 2.7 6 6v48c0 3.3-2.7 6-6 6z" stroke="#5e5e5e" stroke-width="3" fill="#fff"/><use xlink:href="#z" transform="matrix(6.123233995736766e-17,-1,1,6.123233995736766e-17,169.33333333333331,-132.00000000000006) translate(-4.749999999999993 12.61111111111111)"/><path d="M126-120c-3.3 0-6-2.7-6-6v-48c0-3.3 2.7-6 6-6h28c3.3 0 6 2.7 6 6v48c0 3.3-2.7 6-6 6z" stroke="#5e5e5e" stroke-width="3" fill="#fff"/><use xlink:href="#g" transform="matrix(6.123233995736766e-17,-1,1,6.123233995736766e-17,132,-131.99999999999991) translate(0.7592592592592631 12.444444444444443)"/><path d="M163.33-180c-3.3 0-6-2.7-6-6v-48c0-3.3 2.7-6 6-6H194c3.3 0 6 2.7 6 6v48c0 3.3-2.7 6-6 6z" stroke="#5e5e5e" stroke-width="3" fill="#fff"/><use xlink:href="#A" transform="matrix(6.123233995736766e-17,-1,1,6.123233995736766e-17,169.33333333333331,-192.00000000000006) translate(-1.0123456790123413 12.61111111111111)"/><path d="M126-180c-3.3 0-6-2.7-6-6v-48c0-3.3 2.7-6 6-6h28c3.3 0 6 2.7 6 6v48c0 3.3-2.7 6-6 6z" stroke="#5e5e5e" stroke-width="3" fill="#fff"/><use xlink:href="#B" transform="matrix(6.123233995736766e-17,-1,1,6.123233995736766e-17,132,-191.9999999999999) translate(-4.42592592592592 12.444444444444443)"/><path d="M164.67-240c-3.32 0-6-2.7-6-6v-48c0-3.3 2.68-6 6-6h28c3.3 0 6 2.7 6 6v48c0 3.3-2.7 6-6 6z" stroke="#5e5e5e" stroke-width="3" fill="#fff"/><use xlink:href="#C" transform="matrix(6.123233995736766e-17,-1,1,6.123233995736766e-17,170.66666666666663,-251.9999999999999) translate(-4.879629629629626 12.444444444444443)"/><path d="M126-240c-3.3 0-6-2.7-6-6v-48c0-3.3 2.7-6 6-6h28c3.3 0 6 2.7 6 6v48c0 3.3-2.7 6-6 6z" stroke="#5e5e5e" stroke-width="3" fill="#fff"/><use xlink:href="#D" transform="matrix(6.123233995736766e-17,-1,1,6.123233995736766e-17,132,-251.9999999999999) translate(-2.9783950617283885 12.444444444444443)"/><path d="M126 720c-3.3 0-6-2.7-6-6v-48c0-3.3 2.7-6 6-6h30.67c3.3 0 6 2.7 6 6v48c0 3.3-2.7 6-6 6z" stroke="#5e5e5e" stroke-width="3" fill="#fff"/><use xlink:href="#E" transform="matrix(6.123233995736766e-17,-1,1,6.123233995736766e-17,132.00000000000023,708.0000000000001) translate(-1.0123456790123413 12.61111111111111)"/><path d="M163.33 540c-3.3 0-6-2.7-6-6v-48c0-3.3 2.7-6 6-6H194c3.3 0 6 2.7 6 6v48c0 3.3-2.7 6-6 6z" stroke="#5e5e5e" stroke-width="3" fill="#fff"/><use xlink:href="#F" transform="matrix(6.123233995736766e-17,-1,1,6.123233995736766e-17,169.33333333333348,528) translate(-5.333333333333329 12.61111111111111)"/><path d="M127.33-351.33c-3.3 0-6-2.7-6-6V-934c0-3.3 2.7-6 6-6h68c3.32 0 6 2.7 6 6v576.67c0 3.3-2.68 6-6 6z" stroke="#5e5e5e" stroke-width="3" fill="#fff"/><use xlink:href="#a" transform="matrix(6.123233995736766e-17,-1,1,6.123233995736766e-17,133.33333333333337,-363.3333333333335) translate(242.40740740740742 31.77777777777778)"/><path d="M164.67-340c-3.32 0-6-2.7-6-6v-48c0-3.3 2.68-6 6-6h30.66c3.32 0 6 2.7 6 6v48c0 3.3-2.68 6-6 6z" stroke="#5e5e5e" stroke-width="3" fill="#fff"/><use xlink:href="#G" transform="matrix(6.123233995736766e-17,-1,1,6.123233995736766e-17,170.6666666666668,-352) translate(-4.879629629629626 12.61111111111111)"/><path d="M164.67-400c-3.32 0-6-2.7-6-6v-48c0-3.3 2.68-6 6-6h30.66c3.32 0 6 2.7 6 6v48c0 3.3-2.68 6-6 6z" stroke="#5e5e5e" stroke-width="3" fill="#fff"/><use xlink:href="#H" transform="matrix(6.123233995736766e-17,-1,1,6.123233995736766e-17,170.6666666666668,-412) translate(-5.743827160493822 12.61111111111111)"/><path d="M126-340c-3.3 0-6-2.7-6-6v-48c0-3.3 2.7-6 6-6h28c3.3 0 6 2.7 6 6v48c0 3.3-2.7 6-6 6z" stroke="#5e5e5e" stroke-width="3" fill="#fff"/><use xlink:href="#I" transform="matrix(6.123233995736766e-17,-1,1,6.123233995736766e-17,132,-351.9999999999999) translate(-1.0123456790123413 12.444444444444443)"/><path d="M164.67-460c-3.32 0-6-2.7-6-6v-48c0-3.3 2.68-6 6-6h30.66c3.32 0 6 2.7 6 6v48c0 3.3-2.68 6-6 6z" stroke="#5e5e5e" stroke-width="3" fill="#fff"/><use xlink:href="#J" transform="matrix(6.123233995736766e-17,-1,1,6.123233995736766e-17,170.6666666666668,-472) translate(-5.743827160493822 12.61111111111111)"/><path d="M126-400c-3.3 0-6-2.7-6-6v-48c0-3.3 2.7-6 6-6h28c3.3 0 6 2.7 6 6v48c0 3.3-2.7 6-6 6z" stroke="#5e5e5e" stroke-width="3" fill="#fff"/><use xlink:href="#K" transform="matrix(6.123233995736766e-17,-1,1,6.123233995736766e-17,132,-411.99999999999994) translate(-0.42901234567900914 12.444444444444443)"/><path d="M164.67-520c-3.32 0-6-2.7-6-6v-48c0-3.3 2.68-6 6-6h30.66c3.32 0 6 2.7 6 6v48c0 3.3-2.68 6-6 6z" stroke="#5e5e5e" stroke-width="3" fill="#fff"/><use xlink:href="#L" transform="matrix(6.123233995736766e-17,-1,1,6.123233995736766e-17,170.66666666666674,-532) translate(-0.42901234567900914 12.61111111111111)"/><path d="M126-460c-3.3 0-6-2.7-6-6v-48c0-3.3 2.7-6 6-6h28c3.3 0 6 2.7 6 6v48c0 3.3-2.7 6-6 6z" stroke="#5e5e5e" stroke-width="3" fill="#fff"/><use xlink:href="#M" transform="matrix(6.123233995736766e-17,-1,1,6.123233995736766e-17,132,-471.9999999999999) translate(-1.0123456790123413 12.444444444444443)"/><path d="M164.67-580c-3.32 0-6-2.7-6-6v-48c0-3.3 2.68-6 6-6h30.66c3.32 0 6 2.7 6 6v48c0 3.3-2.68 6-6 6z" stroke="#5e5e5e" stroke-width="3" fill="#fff"/><use xlink:href="#N" transform="matrix(6.123233995736766e-17,-1,1,6.123233995736766e-17,170.66666666666674,-592) translate(-0.42901234567900914 12.61111111111111)"/><path d="M126-520c-3.3 0-6-2.7-6-6v-48c0-3.3 2.7-6 6-6h28c3.3 0 6 2.7 6 6v48c0 3.3-2.7 6-6 6z" stroke="#5e5e5e" stroke-width="3" fill="#fff"/><use xlink:href="#O" transform="matrix(6.123233995736766e-17,-1,1,6.123233995736766e-17,132,-531.9999999999999) translate(-1.0123456790123413 12.444444444444443)"/><path d="M164.67-640c-3.32 0-6-2.7-6-6v-48c0-3.3 2.68-6 6-6h30.66c3.32 0 6 2.7 6 6v48c0 3.3-2.68 6-6 6z" stroke="#5e5e5e" stroke-width="3" fill="#fff"/><use xlink:href="#P" transform="matrix(6.123233995736766e-17,-1,1,6.123233995736766e-17,170.66666666666674,-652) translate(-0.42901234567900914 12.61111111111111)"/><path d="M126-580c-3.3 0-6-2.7-6-6v-48c0-3.3 2.7-6 6-6h28c3.3 0 6 2.7 6 6v48c0 3.3-2.7 6-6 6z" stroke="#5e5e5e" stroke-width="3" fill="#fff"/><use xlink:href="#I" transform="matrix(6.123233995736766e-17,-1,1,6.123233995736766e-17,132,-591.9999999999999) translate(-1.0123456790123413 12.444444444444443)"/><path d="M164.67-700c-3.32 0-6-2.7-6-6v-48c0-3.3 2.68-6 6-6h30.66c3.32 0 6 2.7 6 6v48c0 3.3-2.68 6-6 6z" stroke="#5e5e5e" stroke-width="3" fill="#fff"/><use xlink:href="#l" transform="matrix(6.123233995736766e-17,-1,1,6.123233995736766e-17,170.66666666666674,-712) translate(0.7592592592592666 12.444444444444441)"/><path d="M126-640c-3.3 0-6-2.7-6-6v-48c0-3.3 2.7-6 6-6h28c3.3 0 6 2.7 6 6v48c0 3.3-2.7 6-6 6z" stroke="#5e5e5e" stroke-width="3" fill="#fff"/><use xlink:href="#K" transform="matrix(6.123233995736766e-17,-1,1,6.123233995736766e-17,132,-651.9999999999999) translate(-0.42901234567900914 12.444444444444443)"/><path d="M164.67-760c-3.32 0-6-2.7-6-6v-48c0-3.3 2.68-6 6-6h30.66c3.32 0 6 2.7 6 6v48c0 3.3-2.68 6-6 6z" stroke="#5e5e5e" stroke-width="3" fill="#fff"/><use xlink:href="#Q" transform="matrix(6.123233995736766e-17,-1,1,6.123233995736766e-17,170.66666666666663,-772) translate(-2.9783950617283885 12.61111111111111)"/><path d="M126-700c-3.3 0-6-2.7-6-6v-48c0-3.3 2.7-6 6-6h28c3.3 0 6 2.7 6 6v48c0 3.3-2.7 6-6 6z" stroke="#5e5e5e" stroke-width="3" fill="#fff"/><use xlink:href="#R" transform="matrix(6.123233995736766e-17,-1,1,6.123233995736766e-17,132,-711.9999999999999) translate(-5.333333333333329 12.444444444444443)"/><path d="M126-760c-3.3 0-6-2.7-6-6v-48c0-3.3 2.7-6 6-6h28c3.3 0 6 2.7 6 6v48c0 3.3-2.7 6-6 6z" stroke="#5e5e5e" stroke-width="3" fill="#fff"/><use xlink:href="#S" transform="matrix(6.123233995736766e-17,-1,1,6.123233995736766e-17,132,-771.9999999999999) translate(-5.333333333333329 12.444444444444443)"/><path d="M166-820c-3.3 0-6-2.7-6-6v-48c0-3.3 2.7-6 6-6h30.67c3.3 0 6 2.7 6 6v48c0 3.3-2.7 6-6 6z" stroke="#5e5e5e" stroke-width="3" fill="#fff"/><use xlink:href="#T" transform="matrix(6.123233995736766e-17,-1,1,6.123233995736766e-17,172.00000000000023,-832) translate(-1.0123456790123413 12.61111111111111)"/><path d="M126-820c-3.3 0-6-2.7-6-6v-48c0-3.3 2.7-6 6-6h28c3.3 0 6 2.7 6 6v48c0 3.3-2.7 6-6 6z" stroke="#5e5e5e" stroke-width="3" fill="#fff"/><use xlink:href="#U" transform="matrix(6.123233995736766e-17,-1,1,6.123233995736766e-17,132,-831.9999999999999) translate(-5.333333333333329 12.444444444444443)"/><path d="M166-880c-3.3 0-6-2.7-6-6v-48c0-3.3 2.7-6 6-6h28c3.3 0 6 2.7 6 6v48c0 3.3-2.7 6-6 6z" stroke="#5e5e5e" stroke-width="3" fill="#fff"/><use xlink:href="#V" transform="matrix(6.123233995736766e-17,-1,1,6.123233995736766e-17,171.9999999999999,-892) translate(-1.0123456790123413 12.444444444444443)"/><path d="M126-880c-3.3 0-6-2.7-6-6v-48c0-3.3 2.7-6 6-6h28c3.3 0 6 2.7 6 6v48c0 3.3-2.7 6-6 6z" stroke="#5e5e5e" stroke-width="3" fill="#fff"/><use xlink:href="#W" transform="matrix(6.123233995736766e-17,-1,1,6.123233995736766e-17,131.9999999999999,-891.9999999999999) translate(-1.422839506172835 12.444444444444443)"/><path d="M130.67-974c0-3.3 2.68-6 6-6h46.66c3.32 0 6 2.7 6 6v48c0 3.3-2.68 6-6 6h-46.66c-3.32 0-6-2.7-6-6z" stroke="#000" stroke-opacity="0" stroke-width="3" fill="#fff" fill-opacity="0"/><use xlink:href="#X" transform="matrix(1,0,0,1,135.66666666666669,-975) translate(2.3395061728395063 30.27777777777778)"/><path d="M41.33 726c0-3.3 2.7-6 6-6h228c3.32 0 6 2.7 6 6v48c0 3.3-2.68 6-6 6h-228c-3.3 0-6-2.7-6-6z" stroke="#000" stroke-opacity="0" stroke-width="3" fill="#fff" fill-opacity="0"/><use xlink:href="#Y" transform="matrix(1,0,0,1,46.33333333333337,725) translate(86.66666666666667 30.27777777777778)"/><path d="M41.33 726c0-3.3 2.7-6 6-6h228c3.32 0 6 2.7 6 6v48c0 3.3-2.68 6-6 6h-228c-3.3 0-6-2.7-6-6z" stroke="#000" stroke-opacity="0" stroke-width="3" fill="#fff" fill-opacity="0"/><use xlink:href="#Y" transform="matrix(1,0,0,1,46.33333333337214,725) translate(86.66666666666667 30.27777777777778)"/><path d="M569.33-1209c0-3.3 2.7-6 6-6h448c3.32 0 6 2.7 6 6v248c0 3.3-2.68 6-6 6h-448c-3.3 0-6-2.7-6-6z" stroke="#5e5e5e" stroke-width="3" fill="#0c7cba"/><use xlink:href="#Z" transform="matrix(1,0,0,1,574.3333333333333,-1210) translate(204.6604938271605 127.15277777777777)"/><path d="M609.33-1194c0-3.3 2.7-6 6-6h368c3.32 0 6 2.7 6 6v158c0 3.3-2.68 6-6 6h-368c-3.3 0-6-2.7-6-6z" stroke="#5e5e5e" stroke-width="3" fill="#c1e4f7"/><path d="M629.33-1169c0-3.3 2.7-6 6-6h328c3.32 0 6 2.7 6 6v48c0 3.3-2.68 6-6 6h-328c-3.3 0-6-2.7-6-6zM629.33-1109c0-3.3 2.7-6 6-6h328c3.32 0 6 2.7 6 6v48c0 3.3-2.68 6-6 6h-328c-3.3 0-6-2.7-6-6z" stroke="#5e5e5e" stroke-width="3" fill="#ccc"/><path d="M509.33-1254c0-3.3 2.7-6 6-6h228c3.32 0 6 2.7 6 6v48c0 3.3-2.68 6-6 6h-228c-3.3 0-6-2.7-6-6z" stroke="#000" stroke-opacity="0" stroke-width="3" fill="#fff" fill-opacity="0"/><use xlink:href="#aa" transform="matrix(1,0,0,1,514.3333333333333,-1255) translate(65.06172839506172 30.27777777777778)"/><use xlink:href="#ab" transform="matrix(1,0,0,1,514.3333333333333,-1255) translate(120.61728395061728 30.27777777777778)"/><path d="M652-1009c0-3.3 2.7-6 6-6h30.67c3.3 0 6 2.7 6 6v38c0 3.3-2.7 6-6 6H658c-3.3 0-6-2.7-6-6z" stroke="#5e5e5e" stroke-width="3" fill="#c92d39"/><use xlink:href="#ac" transform="matrix(1,0,0,1,664,-1003) translate(-8.604938271604933 16.11111111111111)"/><path d="M609.33-1009c0-3.3 2.7-6 6-6H646c3.3 0 6 2.7 6 6v38c0 3.3-2.7 6-6 6h-30.67c-3.3 0-6-2.7-6-6z" stroke="#5e5e5e" stroke-width="3" fill="#333"/><use xlink:href="#ad" transform="matrix(1,0,0,1,621.3333333333333,-1003) translate(-7.740740740740733 16.11111111111111)"/><path d="M737.33-1009c0-3.3 2.7-6 6-6H774c3.3 0 6 2.7 6 6v38c0 3.3-2.7 6-6 6h-30.67c-3.3 0-6-2.7-6-6z" stroke="#5e5e5e" stroke-width="3" fill="#ffdf71"/><use xlink:href="#ae" transform="matrix(1,0,0,1,749.3333333333333,-1003) translate(-5.601851851851848 16.11111111111111)"/><path d="M694.67-1009c0-3.3 2.68-6 6-6h30.66c3.32 0 6 2.7 6 6v38c0 3.3-2.68 6-6 6h-30.66c-3.32 0-6-2.7-6-6z" stroke="#5e5e5e" stroke-width="3" fill="#fff"/><use xlink:href="#af" transform="matrix(1,0,0,1,706.6666666666665,-1003) translate(-6.466049382716044 16.11111111111111)"/><path d="M560-574c0-3.3 2.7-6 6-6h468c3.3 0 6 2.7 6 6v448c0 3.3-2.7 6-6 6H566c-3.3 0-6-2.7-6-6z" stroke="#5e5e5e" stroke-width="3" fill="#5e5e5e"/><path d="M600-534c0-3.3 2.7-6 6-6h68c3.3 0 6 2.7 6 6v68c0 3.3-2.7 6-6 6h-68c-3.3 0-6-2.7-6-6z" stroke="#fff" stroke-width="3" fill="#0c7cba"/><use xlink:href="#ag" transform="matrix(1,0,0,1,612,-528) translate(20.592592592592595 31.833333333333332)"/><path d="M709.33-534c0-3.3 2.7-6 6-6h68c3.32 0 6 2.7 6 6v68c0 3.3-2.68 6-6 6h-68c-3.3 0-6-2.7-6-6z" stroke="#fff" stroke-width="3" fill="#0c7cba"/><use xlink:href="#ah" transform="matrix(1,0,0,1,721.3333333333333,-527.9999999999999) translate(20.592592592592595 31.833333333333332)"/><path d="M818.67-534c0-3.3 2.68-6 6-6h68c3.3 0 6 2.7 6 6v68c0 3.3-2.7 6-6 6h-68c-3.32 0-6-2.7-6-6z" stroke="#fff" stroke-width="3" fill="#0c7cba"/><use xlink:href="#ai" transform="matrix(1,0,0,1,830.6666666666665,-528) translate(20.592592592592595 31.833333333333332)"/><path d="M920-534c0-3.3 2.7-6 6-6h68c3.3 0 6 2.7 6 6v68c0 3.3-2.7 6-6 6h-68c-3.3 0-6-2.7-6-6z" stroke="#fff" stroke-width="3" fill="#c92d39"/><use xlink:href="#aj" transform="matrix(1,0,0,1,932,-528) translate(19.11111111111111 31.833333333333332)"/><path d="M600-434c0-3.3 2.7-6 6-6h68c3.3 0 6 2.7 6 6v68c0 3.3-2.7 6-6 6h-68c-3.3 0-6-2.7-6-6z" stroke="#fff" stroke-width="3" fill="#0c7cba"/><use xlink:href="#ak" transform="matrix(1,0,0,1,612,-428) translate(20.592592592592595 31.833333333333332)"/><path d="M709.33-434c0-3.3 2.7-6 6-6h68c3.32 0 6 2.7 6 6v68c0 3.3-2.68 6-6 6h-68c-3.3 0-6-2.7-6-6z" stroke="#fff" stroke-width="3" fill="#0c7cba"/><use xlink:href="#al" transform="matrix(1,0,0,1,721.3333333333333,-427.9999999999999) translate(20.592592592592595 31.833333333333332)"/><path d="M818.67-434c0-3.3 2.68-6 6-6h68c3.3 0 6 2.7 6 6v68c0 3.3-2.7 6-6 6h-68c-3.32 0-6-2.7-6-6z" stroke="#fff" stroke-width="3" fill="#0c7cba"/><use xlink:href="#am" transform="matrix(1,0,0,1,830.6666666666665,-428) translate(20.592592592592595 31.833333333333332)"/><path d="M920-434c0-3.3 2.7-6 6-6h68c3.3 0 6 2.7 6 6v68c0 3.3-2.7 6-6 6h-68c-3.3 0-6-2.7-6-6z" stroke="#fff" stroke-width="3" fill="#c92d39"/><use xlink:href="#an" transform="matrix(1,0,0,1,932,-428) translate(19.11111111111111 31.833333333333332)"/><path d="M600-334c0-3.3 2.7-6 6-6h68c3.3 0 6 2.7 6 6v68c0 3.3-2.7 6-6 6h-68c-3.3 0-6-2.7-6-6z" stroke="#fff" stroke-width="3" fill="#0c7cba"/><use xlink:href="#ao" transform="matrix(1,0,0,1,612,-327.9999999999999) translate(20.592592592592595 31.833333333333332)"/><path d="M709.33-334c0-3.3 2.7-6 6-6h68c3.32 0 6 2.7 6 6v68c0 3.3-2.68 6-6 6h-68c-3.3 0-6-2.7-6-6z" stroke="#fff" stroke-width="3" fill="#0c7cba"/><use xlink:href="#ap" transform="matrix(1,0,0,1,721.3333333333333,-327.9999999999998) translate(20.592592592592595 31.833333333333332)"/><path d="M818.67-334c0-3.3 2.68-6 6-6h68c3.3 0 6 2.7 6 6v68c0 3.3-2.7 6-6 6h-68c-3.32 0-6-2.7-6-6z" stroke="#fff" stroke-width="3" fill="#0c7cba"/><use xlink:href="#aq" transform="matrix(1,0,0,1,830.6666666666665,-327.9999999999999) translate(20.592592592592595 31.833333333333332)"/><path d="M920-334c0-3.3 2.7-6 6-6h68c3.3 0 6 2.7 6 6v68c0 3.3-2.7 6-6 6h-68c-3.3 0-6-2.7-6-6z" stroke="#fff" stroke-width="3" fill="#c92d39"/><use xlink:href="#ar" transform="matrix(1,0,0,1,932,-327.9999999999999) translate(18.40740740740741 31.833333333333332)"/><path d="M600-234c0-3.3 2.7-6 6-6h68c3.3 0 6 2.7 6 6v68c0 3.3-2.7 6-6 6h-68c-3.3 0-6-2.7-6-6z" stroke="#fff" stroke-width="3" fill="#c92d39"/><use xlink:href="#as" transform="matrix(1,0,0,1,612,-227.9999999999999) translate(22.814814814814817 31.833333333333332)"/><path d="M709.33-234c0-3.3 2.7-6 6-6h68c3.32 0 6 2.7 6 6v68c0 3.3-2.68 6-6 6h-68c-3.3 0-6-2.7-6-6z" stroke="#fff" stroke-width="3" fill="#0c7cba"/><use xlink:href="#at" transform="matrix(1,0,0,1,721.3333333333333,-227.99999999999977) translate(20.592592592592595 31.833333333333332)"/><path d="M818.67-234c0-3.3 2.68-6 6-6h68c3.3 0 6 2.7 6 6v68c0 3.3-2.7 6-6 6h-68c-3.32 0-6-2.7-6-6z" stroke="#fff" stroke-width="3" fill="#c92d39"/><use xlink:href="#au" transform="matrix(1,0,0,1,830.6666666666665,-227.9999999999999) translate(20.592592592592595 31.833333333333332)"/><path d="M920-234c0-3.3 2.7-6 6-6h68c3.3 0 6 2.7 6 6v68c0 3.3-2.7 6-6 6h-68c-3.3 0-6-2.7-6-6z" stroke="#fff" stroke-width="3" fill="#c92d39"/><use xlink:href="#av" transform="matrix(1,0,0,1,932,-227.9999999999999) translate(18.40740740740741 31.833333333333332)"/><path d="M620-34c0-3.3 2.7-6 6-6h28c3.3 0 6 2.7 6 6v28c0 3.3-2.7 6-6 6h-28c-3.3 0-6-2.7-6-6z" stroke="#5e5e5e" stroke-width="3" fill="#f5b5c8"/><use xlink:href="#aw" transform="matrix(1,0,0,1,632,-28.00000000000005) translate(1.8271604938271606 17.77777777777778)"/><path d="M660-34c0-3.3 2.7-6 6-6h28c3.3 0 6 2.7 6 6v28c0 3.3-2.7 6-6 6h-28c-3.3 0-6-2.7-6-6z" stroke="#5e5e5e" stroke-width="3" fill="#19967d"/><use xlink:href="#ax" transform="matrix(1,0,0,1,672,-27.999999999999936) translate(1.8271604938271606 17.77777777777778)"/><path d="M700-34c0-3.3 2.7-6 6-6h28c3.3 0 6 2.7 6 6v28c0 3.3-2.7 6-6 6h-28c-3.3 0-6-2.7-6-6z" stroke="#5e5e5e" stroke-width="3" fill="#834187"/><use xlink:href="#ay" transform="matrix(1,0,0,1,712,-27.999999999999936) translate(1.8271604938271606 17.77777777777778)"/><path d="M740-34c0-3.3 2.7-6 6-6h28c3.3 0 6 2.7 6 6v28c0 3.3-2.7 6-6 6h-28c-3.3 0-6-2.7-6-6z" stroke="#5e5e5e" stroke-width="3" fill="#4800ff"/><use xlink:href="#az" transform="matrix(1,0,0,1,752,-27.999999999999936) translate(1.8271604938271606 17.77777777777778)"/><path d="M800-34c0-3.3 2.7-6 6-6h28c3.3 0 6 2.7 6 6v28c0 3.3-2.7 6-6 6h-28c-3.3 0-6-2.7-6-6z" stroke="#5e5e5e" stroke-width="3" fill="#ffeca9"/><use xlink:href="#aA" transform="matrix(1,0,0,1,812,-28.000000000000163) translate(1.8271604938271606 17.77777777777778)"/><path d="M840-34c0-3.3 2.7-6 6-6h28c3.3 0 6 2.7 6 6v28c0 3.3-2.7 6-6 6h-28c-3.3 0-6-2.7-6-6z" stroke="#5e5e5e" stroke-width="3" fill="#c92d39"/><use xlink:href="#aB" transform="matrix(1,0,0,1,852,-28.00000000000005) translate(1.8271604938271606 17.77777777777778)"/><path d="M880-34c0-3.3 2.7-6 6-6h28c3.3 0 6 2.7 6 6v28c0 3.3-2.7 6-6 6h-28c-3.3 0-6-2.7-6-6z" stroke="#5e5e5e" stroke-width="3" fill="#50fc00"/><use xlink:href="#aC" transform="matrix(1,0,0,1,892,-28.00000000000005) translate(1.8271604938271606 17.77777777777778)"/><path d="M920-34c0-3.3 2.7-6 6-6h28c3.3 0 6 2.7 6 6v28c0 3.3-2.7 6-6 6h-28c-3.3 0-6-2.7-6-6z" stroke="#5e5e5e" stroke-width="3" fill="#ef8d22"/><use xlink:href="#aD" transform="matrix(1,0,0,1,932,-28.00000000000005) translate(1.8271604938271606 17.77777777777778)"/><path d="M791.83-200h24.34" stroke="#4800ff" stroke-width="2" fill="none"/><path d="M791.86-199h-1.03v-2h1.03M817.17-199h-1.03v-2h1.03" fill="#4800ff"/><path d="M706.83-198.93H682.5" stroke="#4800ff" stroke-width="2" fill="none"/><path d="M707.83-197.93h-1.02v-2h1.03M682.53-197.93h-1.03v-2h1.03" fill="#4800ff"/><path d="M901.17-200h16.33" stroke="#4800ff" stroke-width="2" fill="none"/><path d="M901.2-199h-1.03v-2h1.02M918.5-199h-1.03v-2h1.03" fill="#4800ff"/><path d="M749.33-457.5v15" stroke="#c92d39" stroke-width="2" fill="none"/><path d="M750.33-457.47h-2v-1.03h2M750.33-441.5h-2v-1.03h2" fill="#c92d39"/><path d="M749.33-357.5v15" stroke="#c92d39" stroke-width="2" fill="none"/><path d="M750.33-357.47h-2v-1.03h2M750.33-341.5h-2v-1.03h2" fill="#c92d39"/><path d="M749.33-257.5v15" stroke="#c92d39" stroke-width="2" fill="none"/><path d="M750.33-257.47h-2v-1.03h2M750.33-241.5h-2v-1.03h2" fill="#c92d39"/><path d="M858.67-457.5v15" stroke="#50fc00" stroke-width="2" fill="none"/><path d="M859.67-457.47h-2v-1.03h2M859.67-441.5h-2v-1.03h2" fill="#50fc00"/><path d="M858.67-357.5v15" stroke="#50fc00" stroke-width="2" fill="none"/><path d="M859.67-357.47h-2v-1.03h2M859.67-341.5h-2v-1.03h2" fill="#50fc00"/><path d="M858.67-257.5v15" stroke="#50fc00" stroke-width="2" fill="none"/><path d="M859.67-257.47h-2v-1.03h2M859.67-241.5h-2v-1.03h2" fill="#50fc00"/><path d="M960-457.5v15" stroke="#ef8d22" stroke-width="2" fill="none"/><path d="M961-457.47h-2v-1.03h2M961-441.5h-2v-1.03h2" fill="#ef8d22"/><path d="M960-357.5v15" stroke="#ef8d22" stroke-width="2" fill="none"/><path d="M961-357.47h-2v-1.03h2M961-341.5h-2v-1.03h2" fill="#ef8d22"/><path d="M960-257.5v15" stroke="#ef8d22" stroke-width="2" fill="none"/><path d="M961-257.47h-2v-1.03h2M961-241.5h-2v-1.03h2" fill="#ef8d22"/><path d="M640-457.5v15" stroke="#ffeca9" stroke-width="2" fill="none"/><path d="M641-457.47h-2v-1.03h2M641-441.5h-2v-1.03h2" fill="#ffeca9"/><path d="M640-357.5v15" stroke="#ffeca9" stroke-width="2" fill="none"/><path d="M641-357.47h-2v-1.03h2M641-341.5h-2v-1.03h2" fill="#ffeca9"/><path d="M640-257.5v15" stroke="#ffeca9" stroke-width="2" fill="none"/><path d="M641-257.47h-2v-1.03h2M641-241.5h-2v-1.03h2" fill="#ffeca9"/><path d="M682.5-400h24.33" stroke="#19967d" stroke-width="2" fill="none"/><path d="M682.53-399h-1.03v-2h1.03M707.83-399h-1.02v-2h1.03" fill="#19967d"/><path d="M791.83-400h24.34" stroke="#19967d" stroke-width="2" fill="none"/><path d="M791.86-399h-1.03v-2h1.03M817.17-399h-1.03v-2h1.03" fill="#19967d"/><path d="M901.17-400h16.33" stroke="#19967d" stroke-width="2" fill="none"/><path d="M901.2-399h-1.03v-2h1.02M918.5-399h-1.03v-2h1.03" fill="#19967d"/><path d="M682.5-300h24.33" stroke="#834187" stroke-width="2" fill="none"/><path d="M682.53-299h-1.03v-2h1.03M707.83-299h-1.02v-2h1.03" fill="#834187"/><path d="M791.83-300h24.34" stroke="#834187" stroke-width="2" fill="none"/><path d="M791.86-299h-1.03v-2h1.03M817.17-299h-1.03v-2h1.03" fill="#834187"/><path d="M901.17-300h16.33" stroke="#834187" stroke-width="2" fill="none"/><path d="M901.2-299h-1.03v-2h1.02M918.5-299h-1.03v-2h1.03" fill="#834187"/><path d="M682.5-500h24.33" stroke="#f5b5c8" stroke-width="2" fill="none"/><path d="M682.53-499h-1.03v-2h1.03M707.83-499h-1.02v-2h1.03" fill="#f5b5c8"/><path d="M791.83-500h24.34" stroke="#f5b5c8" stroke-width="2" fill="none"/><path d="M791.86-499h-1.03v-2h1.03M817.17-499h-1.03v-2h1.03" fill="#f5b5c8"/><path d="M901.17-500h16.33" stroke="#f5b5c8" stroke-width="2" fill="none"/><path d="M901.2-499h-1.03v-2h1.02M918.5-499h-1.03v-2h1.03" fill="#f5b5c8"/><path d="M640-42.5V-54c0-3.3-2.7-6-6-6H486c-3.3 0-6-2.7-6-6v-428c0-3.3 2.7-6 6-6h111.5" stroke="#f5b5c8" stroke-width="2" fill="none"/><path d="M641-41.5h-2v-1.03h2M598.5-499h-1.03v-2h1.03" fill="#f5b5c8"/><path d="M680-42.5V-64c0-3.3-2.7-6-6-6H506c-3.3 0-6-2.7-6-6v-318c0-3.3 2.7-6 6-6h91.5" stroke="#19967d" stroke-width="2" fill="none"/><path d="M681-41.5h-2v-1.03h2M598.5-399h-1.03v-2h1.03" fill="#19967d"/><path d="M760-42.5V-84c0-3.3-2.7-6-6-6H546c-3.3 0-6-2.7-6-6v-98c0-3.3 2.7-6 6-6h51.5" stroke="#4800ff" stroke-width="2" fill="none"/><path d="M761-41.5h-2v-1.03h2M598.5-199h-1.03v-2h1.03" fill="#4800ff"/><path d="M720-42.5V-74c0-3.3-2.7-6-6-6H526c-3.3 0-6-2.7-6-6v-208c0-3.3 2.7-6 6-6h71.5" stroke="#834187" stroke-width="2" fill="none"/><path d="M721-41.5h-2v-1.03h2M598.5-299h-1.03v-2h1.03" fill="#834187"/><path d="M820-42.5V-94c0-3.3-2.7-6-6-6H646c-3.3 0-6-2.7-6-6v-51.5" stroke="#ffeca9" stroke-width="2" fill="none"/><path d="M821-41.5h-2v-1.03h2M641-157.47h-2v-1.03h2" fill="#ffeca9"/><path d="M860-42.5V-74c0-3.3-2.7-6-6-6h-18c-3.3 0-6-2.7-6-6v-19.3c0-3.32-2.7-6-6-6h-68.67c-3.3 0-6-2.7-6-6v-40.2" stroke="#c92d39" stroke-width="2" fill="none"/><path d="M861-41.5h-2v-1.03h2M750.33-157.47h-2v-1.03h2" fill="#c92d39"/><path d="M900-42.5V-94c0-3.3-2.7-6-6-6h-29.33c-3.32 0-6-2.7-6-6v-51.5" stroke="#50fc00" stroke-width="2" fill="none"/><path d="M901-41.5h-2v-1.03h2M859.67-157.47h-2v-1.03h2" fill="#50fc00"/><path d="M940-42.5V-94c0-3.3 2.7-6 6-6h8c3.3 0 6-2.7 6-6v-51.5" stroke="#ef8d22" stroke-width="2" fill="none"/><path d="M941-41.5h-2v-1.03h2M961-157.47h-2v-1.03h2" fill="#ef8d22"/><path d="M351.83-730h140v120h-140z" fill="none"/><path d="M407.83-706l28-24-4.2 6.24m4.2-6.24l-6.72 2.64M421.84-706l28-24-4.2 6.24m4.2-6.24l-6.72 2.64M351.83-670h42m0-36v72l42-36-42-36zm42 0v72m0-36h56z" stroke="#4800ff" stroke-width="3" fill="#4800ff"/><path d="M339.27 265.63h140v120h-140z" fill="none"/><path d="M395.27 289.63l28-24-4.2 6.24m4.2-6.24l-6.72 2.64m-7.28 21.36l28-24-4.2 6.24m4.2-6.24l-6.72 2.64M339.27 325.63h42m0-36v72l42-36-42-36zm42 0v72m0-36h56z" stroke="#ffdf71" stroke-width="3" fill="#ffdf71"/><path d="M339.27 385.63h140v120h-140z" fill="none"/><path d="M395.27 409.63l28-24-4.2 6.24m4.2-6.24l-6.72 2.64m-7.28 21.36l28-24-4.2 6.24m4.2-6.24l-6.72 2.64M339.27 445.63h42m0-36v72l42-36-42-36zm42 0v72m0-36h56z" stroke="#c92d39" stroke-width="3" fill="#c92d39"/><path d="M339.27 505.63h140v120h-140z" fill="none"/><path d="M395.27 529.63l28-24-4.2 6.24m4.2-6.24l-6.72 2.64m-7.28 21.36l28-24-4.2 6.24m4.2-6.24l-6.72 2.64M339.27 565.63h42m0-36v72l42-36-42-36zm42 0v72m0-36h56z" stroke="#ffdf71" stroke-width="3" fill="#ffdf71"/><path d="M339.27 625.63h140v120h-140z" fill="none"/><path d="M395.27 649.63l28-24-4.2 6.24m4.2-6.24l-6.72 2.64m-7.28 21.36l28-24-4.2 6.24m4.2-6.24l-6.72 2.64M339.27 685.63h42m0-36v72l42-36-42-36zm42 0v72m0-36h56z" stroke="#c92d39" stroke-width="3" fill="#c92d39"/><path d="M491.83-710h160v80h-160z" fill="none"/><path d="M491.83-670h36l8-12 12 24 12-24 12 24 12-24 12 24 12-24 12 24 8-12h24" stroke="#5e5e5e" stroke-width="3" fill="none"/><use xlink:href="#aE" transform="matrix(1,0,0,1,491.8333329999998,-641.9999999999997) translate(50.092592592592595 19.444444444444443)"/><use xlink:href="#aF" transform="matrix(1,0,0,1,491.8333329999998,-641.9999999999997) translate(93.30246913580248 19.444444444444443)"/><path d="M479.27 285.63h160v80h-160z" fill="none"/><path d="M479.27 325.63h36l8-12 12 24 12-24 12 24 12-24 12 24 12-24 12 24 8-12h24" stroke="#5e5e5e" stroke-width="3" fill="none"/><use xlink:href="#aE" transform="matrix(1,0,0,1,479.2676263044625,353.63307934381) translate(50.092592592592595 19.444444444444443)"/><use xlink:href="#aF" transform="matrix(1,0,0,1,479.2676263044625,353.63307934381) translate(93.30246913580248 19.444444444444443)"/><path d="M479.27 405.63h160v80h-160z" fill="none"/><path d="M479.27 445.63h36l8-12 12 24 12-24 12 24 12-24 12 24 12-24 12 24 8-12h24" stroke="#5e5e5e" stroke-width="3" fill="none"/><use xlink:href="#aE" transform="matrix(1,0,0,1,479.2676263044625,473.63307934381) translate(50.092592592592595 19.444444444444443)"/><use xlink:href="#aF" transform="matrix(1,0,0,1,479.2676263044625,473.63307934381) translate(93.30246913580248 19.444444444444443)"/><path d="M479.27 525.63h160v80h-160z" fill="none"/><path d="M479.27 565.63h36l8-12 12 24 12-24 12 24 12-24 12 24 12-24 12 24 8-12h24" stroke="#5e5e5e" stroke-width="3" fill="none"/><use xlink:href="#aE" transform="matrix(1,0,0,1,479.2676263044625,593.6330793438098) translate(50.092592592592595 19.444444444444443)"/><use xlink:href="#aF" transform="matrix(1,0,0,1,479.2676263044625,593.6330793438098) translate(93.30246913580248 19.444444444444443)"/><path d="M479.27 645.63h160v80h-160z" fill="none"/><path d="M479.27 685.63h36l8-12 12 24 12-24 12 24 12-24 12 24 12-24 12 24 8-12h24" stroke="#5e5e5e" stroke-width="3" fill="none"/><use xlink:href="#aE" transform="matrix(1,0,0,1,479.2676263044625,713.6330793438098) translate(50.092592592592595 19.444444444444443)"/><use xlink:href="#aF" transform="matrix(1,0,0,1,479.2676263044625,713.6330793438098) translate(93.30246913580248 19.444444444444443)"/><path d="M619.27 325.63h40v40h-40z" fill="none"/><path d="M619.27 333.63h40m-6 8h-28m6 8h16m-12 8h8m-2 8h-4m2-40v8z" stroke="#5e5e5e" stroke-width="3" fill="#fff"/><path d="M619.27 445.63h40v40h-40z" fill="none"/><path d="M619.27 453.63h40m-6 8h-28m6 8h16m-12 8h8m-2 8h-4m2-40v8z" stroke="#5e5e5e" stroke-width="3" fill="#fff"/><path d="M619.27 565.63h40v40h-40z" fill="none"/><path d="M619.27 573.63h40m-6 8h-28m6 8h16m-12 8h8m-2 8h-4m2-40v8z" stroke="#5e5e5e" stroke-width="3" fill="#fff"/><path d="M619.27 685.63h40v40h-40z" fill="none"/><path d="M619.27 693.63h40m-6 8h-28m6 8h16m-12 8h8m-2 8h-4m2-40v8z" stroke="#5e5e5e" stroke-width="3" fill="#fff"/><path d="M338.27 685.63h-48.92c-.04 0-.08.04-.08.1 0 .04-.04.07-.1.07H202.5" stroke="#c92d39" stroke-width="2" fill="none"/><path d="M339.27 686.63h-1.03v-2h1.03M202.53 686.8h-1.03v-2h1.03" fill="#c92d39"/><path d="M338.27 565.63H316c-3.3 0-6 2.7-6 6V624c0 3.3-2.7 6-6 6H203.83" stroke="#ffdf71" stroke-width="2" fill="none"/><path d="M339.27 566.63h-1.03v-2h1.03M203.86 631h-1.03v-2h1.03" fill="#ffdf71"/><path d="M203.83 570H274c3.3 0 6-2.7 6-6V451.63c0-3.3 2.7-6 6-6h52.27" stroke="#c92d39" stroke-width="2" fill="none"/><path d="M203.86 571h-1.03v-2h1.03M339.27 446.63h-1.03v-2h1.03" fill="#c92d39"/><path d="M338.27 325.63h-83c-3.32 0-6 2.7-6 6V504c0 3.3-2.7 6-6 6H202.5" stroke="#ffdf71" stroke-width="2" fill="none"/><path d="M339.27 326.63h-1.03v-2h1.03M202.53 511h-1.03v-2h1.03" fill="#ffdf71"/><path d="M861.78-1113.5" stroke="#f5b5c8" stroke-width="2" fill="none"/><path fill="#f5b5c8"/><path fill="#f5b5c8"/><path d="M128.67-1086.27v40h-40v-40z" fill="none"/><path d="M120.67-1086.27v40m-8-6v-28m-8 6v16m-8-12v8m-8-2v-4m40 2h-8z" stroke="#5e5e5e" stroke-width="3" fill="#fff"/><path d="M631.83-670h40v40h-40z" fill="none"/><path d="M631.83-662h40m-6 8h-28m6 8h16m-12 8h8m-2 8h-4m2-40v8z" stroke="#5e5e5e" stroke-width="3" fill="#fff"/><path d="M122-1029.3v42.67l-32-21.34zm8 21.33h-8z" stroke="#c92d39" stroke-width="3" fill="#fff"/><path d="M673.33-962.5v56.5c0 3.3-2.68 6-6 6h-348c-3.3 0-6-2.7-6-6v-95.97c0-3.3-2.68-6-6-6H131" stroke="#c92d39" stroke-width="2" fill="none"/><path d="M674.33-962.47h-2v-1.03h2M131.03-1006.97H130v-2h1.03" fill="#c92d39"/><path d="M630.67-962.5v36.5c0 3.3-2.7 6-6 6H346c-3.3 0-6-2.7-6-6v-132.93c0-3.32-2.7-6-6-6H129.67" stroke="#333" stroke-width="2" fill="none"/><path d="M631.67-962.47h-2v-1.03h2M129.7-1063.93h-4.03v-.84h3v-1.16h1.02" fill="#333"/><path d="M134-1050.93c3.3 0 6 2.68 6 6V-971c0 3.3-2.7 6-6 6H86c-3.3 0-6-2.7-6-6v-73.93c0-3.32 2.7-6 6-6z" stroke="#000" stroke-opacity="0" stroke-width="3" fill="#fff" fill-opacity="0"/><use xlink:href="#aG" transform="matrix(6.123233995736766e-17,1,-1,6.123233995736766e-17,135,-1045.9342929711293) translate(27.135802469135804 29.84722222222222)"/><path d="M940 2.5V204c0 3.3-2.7 6-6 6H406c-3.3 0-6-2.7-6-6v-468c0-3.3-2.7-6-6-6H201.17" stroke="#ef8d22" stroke-width="2" fill="none"/><path d="M941 2.53h-2V1.5h2M201.2-269h-1.03v-2h1.02" fill="#ef8d22"/><path d="M900 2.5V184c0 3.3-2.7 6-6 6H386c-3.3 0-6-2.7-6-6v-381.07c0-3.32-2.7-6-6-6H202.5" stroke="#50fc00" stroke-width="2" fill="none"/><path d="M901 2.53h-2V1.5h2M202.53-202.07h-1.03v-2h1.03" fill="#50fc00"/><path d="M860 2.5V164c0 3.3-2.7 6-6 6H366c-3.3 0-6-2.7-6-6v-308c0-3.3-2.7-6-6-6H202.5" stroke="#c92d39" stroke-width="2" fill="none"/><path d="M861 2.53h-2V1.5h2M202.53-149h-1.03v-2h1.03" fill="#c92d39"/><path d="M820 2.5V144c0 3.3-2.7 6-6 6H346c-3.3 0-6-2.7-6-6V-83.43c0-3.32-2.7-6-6-6H202.5" stroke="#ffdf71" stroke-width="2" fill="none"/><path d="M821 2.53h-2V1.5h2M202.53-88.43h-1.03v-2h1.03" fill="#ffdf71"/><path d="M760 2.5V24c0 3.3-2.7 6-6 6H326c-3.3 0-6-2.7-6-6v-46.17c0-3.3-2.7-6-6-6H193.7" stroke="#4800ff" stroke-width="2" fill="none"/><path d="M761 2.53h-2V1.5h2" fill="#4800ff"/><path d="M193.72-28.17h-1.03" stroke="#4800ff" stroke-width="2" fill="none"/><path d="M720 2.5V64c0 3.3-2.7 6-6 6H296c-3.3 0-6-2.7-6-6V36c0-3.3-2.7-6-6-6h-81.5" stroke="#834187" stroke-width="2" fill="none"/><path d="M721 2.53h-2V1.5h2M202.53 31h-1.03v-2h1.03" fill="#834187"/><path d="M680 2.5V104c0 3.3-2.7 6-6 6H276c-3.3 0-6-2.7-6-6v-8c0-3.3-2.7-6-6-6h-61.5" stroke="#19967d" stroke-width="2" fill="none"/><path d="M681 2.53h-2V1.5h2M202.53 91h-1.03v-2h1.03" fill="#19967d"/><path d="M640 2.5V124c0 3.3-2.7 6-6 6H276c-3.3 0-6 2.7-6 6v8c0 3.3-2.7 6-6 6h-61.5" stroke="#f5b5c8" stroke-width="2" fill="none"/><path d="M641 2.53h-2V1.5h2M202.53 151h-1.03v-2h1.03" fill="#f5b5c8"/><path d="M716-962.5v106.13c0 3.3-2.7 6-6 6H260.2c-.12 0-.2.08-.2.18 0 .12-.08.2-.2.2h-16.78c-.1 0-.2-.08-.2-.2 0-.1-.07-.17-.17-.17h-38.82" stroke="#333" stroke-width="2" fill="none"/><path d="M717-962.47h-2v-1.03h2M203.86-849.37h-1.03v-2h1.03" fill="#333"/><path d="M758.67-962.5v76.5c0 3.3-2.7 6-6 6H247.5c-3.3 0-6-2.7-6-6v-18c0-3.3-2.7-6-6-6h-33" stroke="#ffdf71" stroke-width="2" fill="none"/><path d="M759.67-962.47h-2v-1.03h2M202.53-909h-1.03v-2h1.03" fill="#ffdf71"/><path d="M204.33-670h146" stroke="#4800ff" stroke-width="3" fill="none"/><path d="M204.37-668.5h-1.54v-3h1.54M351.83-668.5h-1.54v-3h1.53" fill="#4800ff"/><path d="M1029.33-10h160v80h-160z" fill="none"/><path d="M1029.33 30h36l8-12 12 24 12-24 12 24 12-24 12 24 12-24 12 24 8-12h24" stroke="#5e5e5e" stroke-width="3" fill="none"/><use xlink:href="#aH" transform="matrix(1,0,0,1,1029.3333333333333,58) translate(43.95061728395062 19.444444444444443)"/><use xlink:href="#aI" transform="matrix(1,0,0,1,1029.3333333333333,58) translate(66.11111111111111 19.444444444444443)"/><use xlink:href="#aJ" transform="matrix(1,0,0,1,1029.3333333333333,58) translate(99.44444444444446 19.444444444444443)"/><path d="M1029.33 70h160v80h-160z" fill="none"/><path d="M1029.33 110h36l8-12 12 24 12-24 12 24 12-24 12 24 12-24 12 24 8-12h24" stroke="#5e5e5e" stroke-width="3" fill="none"/><use xlink:href="#aH" transform="matrix(1,0,0,1,1029.3333333333333,138) translate(43.95061728395062 19.444444444444443)"/><use xlink:href="#aI" transform="matrix(1,0,0,1,1029.3333333333333,138) translate(66.11111111111111 19.444444444444443)"/><use xlink:href="#aJ" transform="matrix(1,0,0,1,1029.3333333333333,138) translate(99.44444444444446 19.444444444444443)"/><path d="M1029.33 150h160v80h-160z" fill="none"/><path d="M1029.33 190h36l8-12 12 24 12-24 12 24 12-24 12 24 12-24 12 24 8-12h24" stroke="#5e5e5e" stroke-width="3" fill="none"/><use xlink:href="#aH" transform="matrix(1,0,0,1,1029.3333333333333,218) translate(43.95061728395062 19.444444444444443)"/><use xlink:href="#aI" transform="matrix(1,0,0,1,1029.3333333333333,218) translate(66.11111111111111 19.444444444444443)"/><use xlink:href="#aJ" transform="matrix(1,0,0,1,1029.3333333333333,218) translate(99.44444444444446 19.444444444444443)"/><path d="M1029.33 230h160v80h-160z" fill="none"/><path d="M1029.33 270h36l8-12 12 24 12-24 12 24 12-24 12 24 12-24 12 24 8-12h24" stroke="#5e5e5e" stroke-width="3" fill="none"/><use xlink:href="#aH" transform="matrix(1,0,0,1,1029.3333333333333,298) translate(43.95061728395062 19.444444444444443)"/><use xlink:href="#aI" transform="matrix(1,0,0,1,1029.3333333333333,298) translate(66.11111111111111 19.444444444444443)"/><use xlink:href="#aJ" transform="matrix(1,0,0,1,1029.3333333333333,298) translate(99.44444444444446 19.444444444444443)"/><path d="M1028.33 30H821" stroke="#ffdf71" stroke-width="2" fill="none"/><path d="M1029.33 31h-1.02v-2h1.03" fill="#ffdf71"/><path d="M821.03 30H820" stroke="#ffdf71" stroke-width="2" fill="none"/><path d="M1028.33 110H861" stroke="#c92d39" stroke-width="2" fill="none"/><path d="M1029.33 111h-1.02v-2h1.03" fill="#c92d39"/><path d="M861.03 110H860" stroke="#c92d39" stroke-width="2" fill="none"/><path d="M1028.33 190h-134" stroke="#50fc00" stroke-width="2" fill="none"/><path d="M1029.33 191h-1.02v-2h1.03" fill="#50fc00"/><path d="M894.34 190h-1.02" stroke="#50fc00" stroke-width="2" fill="none"/><path d="M1028.33 270H946c-3.3 0-6-2.7-6-6v-58" stroke="#ef8d22" stroke-width="2" fill="none"/><path d="M1029.33 271h-1.02v-2h1.03" fill="#ef8d22"/><path d="M940 206.02V205" stroke="#ef8d22" stroke-width="2" fill="none"/><path d="M1180 30h40v40h-40z" fill="none"/><path d="M1180 38h40m-6 8h-28m6 8h16m-12 8h8m-2 8h-4m2-40v8z" stroke="#5e5e5e" stroke-width="3" fill="#fff"/><path d="M1198.5 30h-7.67" stroke="#5e5e5e" stroke-width="3" fill="none"/><path fill="#5e5e5e"/><path d="M1190.87 31.5h-1.54v-3h1.54" fill="#5e5e5e"/><path d="M1180 110h40v40h-40z" fill="none"/><path d="M1180 118h40m-6 8h-28m6 8h16m-12 8h8m-2 8h-4m2-40v8z" stroke="#5e5e5e" stroke-width="3" fill="#fff"/><path d="M1180 190h40v40h-40z" fill="none"/><path d="M1180 198h40m-6 8h-28m6 8h16m-12 8h8m-2 8h-4m2-40v8z" stroke="#5e5e5e" stroke-width="3" fill="#fff"/><path d="M1180 270h40v40h-40z" fill="none"/><path d="M1180 278h40m-6 8h-28m6 8h16m-12 8h8m-2 8h-4m2-40v8z" stroke="#5e5e5e" stroke-width="3" fill="#fff"/><path d="M1198.5 270h-7.67" stroke="#5e5e5e" stroke-width="3" fill="none"/><path fill="#5e5e5e"/><path d="M1190.87 271.5h-1.54v-3h1.54" fill="#5e5e5e"/><path d="M1198.5 190h-7.67" stroke="#5e5e5e" stroke-width="3" fill="none"/><path fill="#5e5e5e"/><path d="M1190.87 191.5h-1.54v-3h1.54" fill="#5e5e5e"/><path d="M1198.5 110h-7.67" stroke="#5e5e5e" stroke-width="3" fill="none"/><path fill="#5e5e5e"/><path d="M1190.87 111.5h-1.54v-3h1.54" fill="#5e5e5e"/><defs><path fill="#333" d="M30-248c87 1 191-15 191 75 0 78-77 80-158 76V0H30v-248zm33 125c57 0 124 11 124-50 0-59-68-47-124-48v98" id="aK"/><path fill="#333" d="M114-163C36-179 61-72 57 0H25l-1-190h30c1 12-1 29 2 39 6-27 23-49 58-41v29" id="aL"/><path fill="#333" d="M100-194c62-1 85 37 85 99 1 63-27 99-86 99S16-35 15-95c0-66 28-99 85-99zM99-20c44 1 53-31 53-75 0-43-8-75-51-75s-53 32-53 75 10 74 51 75" id="aM"/><path fill="#333" d="M96-169c-40 0-48 33-48 73s9 75 48 75c24 0 41-14 43-38l32 2c-6 37-31 61-74 61-59 0-76-41-82-99-10-93 101-131 147-64 4 7 5 14 7 22l-32 3c-4-21-16-35-41-35" id="aN"/><path fill="#333" d="M100-194c63 0 86 42 84 106H49c0 40 14 67 53 68 26 1 43-12 49-29l28 8c-11 28-37 45-77 45C44 4 14-33 15-96c1-61 26-98 85-98zm52 81c6-60-76-77-97-28-3 7-6 17-6 28h103" id="aO"/><path fill="#333" d="M135-143c-3-34-86-38-87 0 15 53 115 12 119 90S17 21 10-45l28-5c4 36 97 45 98 0-10-56-113-15-118-90-4-57 82-63 122-42 12 7 21 19 24 35" id="aP"/><g id="a"><use transform="matrix(0.06172839506172839,0,0,0.06172839506172839,0,0)" xlink:href="#aK"/><use transform="matrix(0.06172839506172839,0,0,0.06172839506172839,14.814814814814813,0)" xlink:href="#aL"/><use transform="matrix(0.06172839506172839,0,0,0.06172839506172839,22.160493827160494,0)" xlink:href="#aM"/><use transform="matrix(0.06172839506172839,0,0,0.06172839506172839,34.50617283950617,0)" xlink:href="#aN"/><use transform="matrix(0.06172839506172839,0,0,0.06172839506172839,45.61728395061728,0)" xlink:href="#aO"/><use transform="matrix(0.06172839506172839,0,0,0.06172839506172839,57.962962962962955,0)" xlink:href="#aP"/><use transform="matrix(0.06172839506172839,0,0,0.06172839506172839,69.07407407407406,0)" xlink:href="#aP"/></g><path fill="#333" d="M160-131c35 5 61 23 61 61C221 17 115-2 30 0v-248c76 3 177-17 177 60 0 33-19 50-47 57zm-97-11c50-1 110 9 110-42 0-47-63-36-110-37v79zm0 115c55-2 124 14 124-45 0-56-70-42-124-44v89" id="aQ"/><path fill="#333" d="M-5 72V49h209v23H-5" id="aR"/><path fill="#333" d="M27 0v-27h64v-190l-56 39v-29l58-41h29v221h61V0H27" id="aS"/><g id="b"><use transform="matrix(0.04320987654320986,0,0,0.04320987654320986,0,0)" xlink:href="#aK"/><use transform="matrix(0.04320987654320986,0,0,0.04320987654320986,10.370370370370367,0)" xlink:href="#aQ"/><use transform="matrix(0.04320987654320986,0,0,0.04320987654320986,20.740740740740733,0)" xlink:href="#aR"/><use transform="matrix(0.04320987654320986,0,0,0.04320987654320986,29.38271604938271,0)" xlink:href="#aS"/><use transform="matrix(0.04320987654320986,0,0,0.04320987654320986,36.85802469135801,0)" xlink:href="#aS"/></g><path fill="#333" d="M101-251c68 0 85 55 85 127S166 4 100 4C33 4 14-52 14-124c0-73 17-127 87-127zm-1 229c47 0 54-49 54-102s-4-102-53-102c-51 0-55 48-55 102 0 53 5 102 54 102" id="aT"/><g id="c"><use transform="matrix(0.04320987654320987,0,0,0.04320987654320987,0,0)" xlink:href="#aK"/><use transform="matrix(0.04320987654320987,0,0,0.04320987654320987,10.370370370370368,0)" xlink:href="#aQ"/><use transform="matrix(0.04320987654320987,0,0,0.04320987654320987,20.740740740740737,0)" xlink:href="#aR"/><use transform="matrix(0.04320987654320987,0,0,0.04320987654320987,29.382716049382708,0)" xlink:href="#aT"/></g><g id="d"><use transform="matrix(0.04320987654320986,0,0,0.04320987654320986,0,0)" xlink:href="#aK"/><use transform="matrix(0.04320987654320986,0,0,0.04320987654320986,10.370370370370367,0)" xlink:href="#aQ"/><use transform="matrix(0.04320987654320986,0,0,0.04320987654320986,20.740740740740733,0)" xlink:href="#aR"/><use transform="matrix(0.04320987654320986,0,0,0.04320987654320986,29.38271604938271,0)" xlink:href="#aS"/><use transform="matrix(0.04320987654320986,0,0,0.04320987654320986,38.02469135802468,0)" xlink:href="#aT"/></g><path fill="#333" d="M205 0l-28-72H64L36 0H1l101-248h38L239 0h-34zm-38-99l-47-123c-12 45-31 82-46 123h93" id="aU"/><g id="e"><use transform="matrix(0.04320987654320987,0,0,0.04320987654320987,0,0)" xlink:href="#aK"/><use transform="matrix(0.04320987654320987,0,0,0.04320987654320987,9.203703703703702,0)" xlink:href="#aU"/><use transform="matrix(0.04320987654320987,0,0,0.04320987654320987,19.57407407407407,0)" xlink:href="#aR"/><use transform="matrix(0.04320987654320987,0,0,0.04320987654320987,28.216049382716044,0)" xlink:href="#aT"/></g><path fill="#333" d="M30 0v-248h187v28H63v79h144v27H63v87h162V0H30" id="aV"/><path fill="#333" d="M54-142c48-35 137-8 131 61C196 18 31 33 14-55l32-4c7 23 22 37 52 37 35-1 51-22 54-58 4-55-73-65-99-34H22l8-134h141v27H59" id="aW"/><g id="f"><use transform="matrix(0.04320987654320986,0,0,0.04320987654320986,0,0)" xlink:href="#aK"/><use transform="matrix(0.04320987654320986,0,0,0.04320987654320986,10.370370370370367,0)" xlink:href="#aV"/><use transform="matrix(0.04320987654320986,0,0,0.04320987654320986,20.740740740740733,0)" xlink:href="#aR"/><use transform="matrix(0.04320987654320986,0,0,0.04320987654320986,29.38271604938271,0)" xlink:href="#aS"/><use transform="matrix(0.04320987654320986,0,0,0.04320987654320986,38.02469135802468,0)" xlink:href="#aW"/></g><path fill="#333" d="M143 4C61 4 22-44 18-125c-5-107 100-154 193-111 17 8 29 25 37 43l-32 9c-13-25-37-40-76-40-61 0-88 39-88 99 0 61 29 100 91 101 35 0 62-11 79-27v-45h-74v-28h105v86C228-13 192 4 143 4" id="aX"/><path fill="#333" d="M190 0L58-211 59 0H30v-248h39L202-35l-2-213h31V0h-41" id="aY"/><path fill="#333" d="M30-248c118-7 216 8 213 122C240-48 200 0 122 0H30v-248zM63-27c89 8 146-16 146-99s-60-101-146-95v194" id="aZ"/><g id="g"><use transform="matrix(0.04320987654320987,0,0,0.04320987654320987,0,0)" xlink:href="#aX"/><use transform="matrix(0.04320987654320987,0,0,0.04320987654320987,12.098765432098762,0)" xlink:href="#aY"/><use transform="matrix(0.04320987654320987,0,0,0.04320987654320987,23.29012345679012,0)" xlink:href="#aZ"/></g><path fill="#333" d="M101-251c82-7 93 87 43 132L82-64C71-53 59-42 53-27h129V0H18c2-99 128-94 128-182 0-28-16-43-45-43s-46 15-49 41l-32-3c6-41 34-60 81-64" id="ba"/><g id="h"><use transform="matrix(0.04320987654320986,0,0,0.04320987654320986,0,0)" xlink:href="#aK"/><use transform="matrix(0.04320987654320986,0,0,0.04320987654320986,10.370370370370367,0)" xlink:href="#aV"/><use transform="matrix(0.04320987654320986,0,0,0.04320987654320986,20.740740740740733,0)" xlink:href="#aR"/><use transform="matrix(0.04320987654320986,0,0,0.04320987654320986,29.38271604938271,0)" xlink:href="#aS"/><use transform="matrix(0.04320987654320986,0,0,0.04320987654320986,38.02469135802468,0)" xlink:href="#ba"/></g><path fill="#333" d="M155-56V0h-30v-56H8v-25l114-167h33v167h35v25h-35zm-30-156c-27 46-58 90-88 131h88v-131" id="bb"/><g id="i"><use transform="matrix(0.04320987654320987,0,0,0.04320987654320987,0,0)" xlink:href="#aK"/><use transform="matrix(0.04320987654320987,0,0,0.04320987654320987,10.370370370370368,0)" xlink:href="#aV"/><use transform="matrix(0.04320987654320987,0,0,0.04320987654320987,20.740740740740737,0)" xlink:href="#aR"/><use transform="matrix(0.04320987654320987,0,0,0.04320987654320987,29.382716049382708,0)" xlink:href="#aS"/><use transform="matrix(0.04320987654320987,0,0,0.04320987654320987,38.02469135802468,0)" xlink:href="#bb"/></g><g id="j"><use transform="matrix(0.04320987654320986,0,0,0.04320987654320986,0,0)" xlink:href="#aK"/><use transform="matrix(0.04320987654320986,0,0,0.04320987654320986,10.370370370370367,0)" xlink:href="#aV"/><use transform="matrix(0.04320987654320986,0,0,0.04320987654320986,20.740740740740733,0)" xlink:href="#aR"/><use transform="matrix(0.04320987654320986,0,0,0.04320987654320986,29.38271604938271,0)" xlink:href="#aS"/><use transform="matrix(0.04320987654320986,0,0,0.04320987654320986,38.02469135802468,0)" xlink:href="#aT"/></g><g id="k"><use transform="matrix(0.04320987654320987,0,0,0.04320987654320987,0,0)" xlink:href="#aK"/><use transform="matrix(0.04320987654320987,0,0,0.04320987654320987,10.370370370370368,0)" xlink:href="#aV"/><use transform="matrix(0.04320987654320987,0,0,0.04320987654320987,20.740740740740737,0)" xlink:href="#aR"/><use transform="matrix(0.04320987654320987,0,0,0.04320987654320987,29.382716049382708,0)" xlink:href="#aS"/><use transform="matrix(0.04320987654320987,0,0,0.04320987654320987,38.02469135802468,0)" xlink:href="#ba"/></g><g id="l"><use transform="matrix(0.04320987654320986,0,0,0.04320987654320986,0,0)" xlink:href="#aX"/><use transform="matrix(0.04320987654320986,0,0,0.04320987654320986,12.09876543209876,0)" xlink:href="#aY"/><use transform="matrix(0.04320987654320986,0,0,0.04320987654320986,23.290123456790116,0)" xlink:href="#aZ"/></g><path fill="#333" d="M64 0c3-98 48-159 88-221H18v-27h164v26C143-157 98-101 97 0H64" id="bc"/><g id="m"><use transform="matrix(0.04320987654320986,0,0,0.04320987654320986,0,0)" xlink:href="#aK"/><use transform="matrix(0.04320987654320986,0,0,0.04320987654320986,10.370370370370367,0)" xlink:href="#aV"/><use transform="matrix(0.04320987654320986,0,0,0.04320987654320986,20.740740740740733,0)" xlink:href="#aR"/><use transform="matrix(0.04320987654320986,0,0,0.04320987654320986,29.38271604938271,0)" xlink:href="#bc"/></g><g id="n"><use transform="matrix(0.04320987654320987,0,0,0.04320987654320987,0,0)" xlink:href="#aK"/><use transform="matrix(0.04320987654320987,0,0,0.04320987654320987,10.370370370370368,0)" xlink:href="#aV"/><use transform="matrix(0.04320987654320987,0,0,0.04320987654320987,20.740740740740737,0)" xlink:href="#aR"/><use transform="matrix(0.04320987654320987,0,0,0.04320987654320987,29.382716049382708,0)" xlink:href="#aS"/><use transform="matrix(0.04320987654320987,0,0,0.04320987654320987,38.02469135802468,0)" xlink:href="#aW"/></g><path fill="#333" d="M134-131c28 9 52 24 51 62-1 50-34 73-85 73S17-19 16-69c0-36 21-54 49-61-75-25-45-126 34-121 46 3 78 18 79 63 0 33-17 51-44 57zm-34-11c31 1 46-15 46-44 0-28-17-43-47-42-29 0-46 13-45 42 1 28 16 44 46 44zm1 122c35 0 51-18 51-52 0-30-18-46-53-46-33 0-51 17-51 47 0 34 19 51 53 51" id="bd"/><g id="o"><use transform="matrix(0.04320987654320986,0,0,0.04320987654320986,0,0)" xlink:href="#aK"/><use transform="matrix(0.04320987654320986,0,0,0.04320987654320986,10.370370370370367,0)" xlink:href="#aV"/><use transform="matrix(0.04320987654320986,0,0,0.04320987654320986,20.740740740740733,0)" xlink:href="#aR"/><use transform="matrix(0.04320987654320986,0,0,0.04320987654320986,29.38271604938271,0)" xlink:href="#bd"/></g><path fill="#333" d="M99-251c64 0 84 50 84 122C183-37 130 33 47-8c-14-7-20-23-25-40l30-5c6 39 69 39 84 7 9-19 16-44 16-74-10 22-31 35-62 35-49 0-73-33-73-83 0-54 28-83 82-83zm-1 141c31-1 51-18 51-49 0-36-14-67-51-67-34 0-49 23-49 58 0 34 15 58 49 58" id="be"/><g id="p"><use transform="matrix(0.04320987654320986,0,0,0.04320987654320986,0,0)" xlink:href="#aK"/><use transform="matrix(0.04320987654320986,0,0,0.04320987654320986,10.370370370370367,0)" xlink:href="#aZ"/><use transform="matrix(0.04320987654320986,0,0,0.04320987654320986,21.56172839506172,0)" xlink:href="#aR"/><use transform="matrix(0.04320987654320986,0,0,0.04320987654320986,30.2037037037037,0)" xlink:href="#be"/></g><g id="q"><use transform="matrix(0.04320987654320987,0,0,0.04320987654320987,0,0)" xlink:href="#aK"/><use transform="matrix(0.04320987654320987,0,0,0.04320987654320987,10.370370370370368,0)" xlink:href="#aQ"/><use transform="matrix(0.04320987654320987,0,0,0.04320987654320987,20.740740740740737,0)" xlink:href="#aR"/><use transform="matrix(0.04320987654320987,0,0,0.04320987654320987,29.382716049382708,0)" xlink:href="#aS"/><use transform="matrix(0.04320987654320987,0,0,0.04320987654320987,38.02469135802468,0)" xlink:href="#aT"/></g><g id="r"><use transform="matrix(0.04320987654320986,0,0,0.04320987654320986,0,0)" xlink:href="#aK"/><use transform="matrix(0.04320987654320986,0,0,0.04320987654320986,10.370370370370367,0)" xlink:href="#aZ"/><use transform="matrix(0.04320987654320986,0,0,0.04320987654320986,21.56172839506172,0)" xlink:href="#aR"/><use transform="matrix(0.04320987654320986,0,0,0.04320987654320986,30.2037037037037,0)" xlink:href="#bd"/></g><g id="s"><use transform="matrix(0.04320987654320987,0,0,0.04320987654320987,0,0)" xlink:href="#aK"/><use transform="matrix(0.04320987654320987,0,0,0.04320987654320987,9.203703703703702,0)" xlink:href="#aU"/><use transform="matrix(0.04320987654320987,0,0,0.04320987654320987,19.57407407407407,0)" xlink:href="#aR"/><use transform="matrix(0.04320987654320987,0,0,0.04320987654320987,28.216049382716044,0)" xlink:href="#ba"/></g><path fill="#333" d="M63-220v92h138v28H63V0H30v-248h175v28H63" id="bf"/><g id="t"><use transform="matrix(0.04320987654320986,0,0,0.04320987654320986,0,0)" xlink:href="#aK"/><use transform="matrix(0.04320987654320986,0,0,0.04320987654320986,10.370370370370367,0)" xlink:href="#bf"/><use transform="matrix(0.04320987654320986,0,0,0.04320987654320986,19.83333333333333,0)" xlink:href="#aR"/><use transform="matrix(0.04320987654320986,0,0,0.04320987654320986,28.475308641975303,0)" xlink:href="#aS"/><use transform="matrix(0.04320987654320986,0,0,0.04320987654320986,37.11728395061728,0)" xlink:href="#aW"/></g><g id="u"><use transform="matrix(0.04320987654320987,0,0,0.04320987654320987,0,0)" xlink:href="#aK"/><use transform="matrix(0.04320987654320987,0,0,0.04320987654320987,9.203703703703702,0)" xlink:href="#aU"/><use transform="matrix(0.04320987654320987,0,0,0.04320987654320987,19.57407407407407,0)" xlink:href="#aR"/><use transform="matrix(0.04320987654320987,0,0,0.04320987654320987,28.216049382716044,0)" xlink:href="#aS"/></g><path fill="#333" d="M126-127c33 6 58 20 58 59 0 88-139 92-164 29-3-8-5-16-6-25l32-3c6 27 21 44 54 44 32 0 52-15 52-46 0-38-36-46-79-43v-28c39 1 72-4 72-42 0-27-17-43-46-43-28 0-47 15-49 41l-32-3c6-42 35-63 81-64 48-1 79 21 79 65 0 36-21 52-52 59" id="bg"/><g id="v"><use transform="matrix(0.04320987654320986,0,0,0.04320987654320986,0,0)" xlink:href="#aK"/><use transform="matrix(0.04320987654320986,0,0,0.04320987654320986,10.370370370370367,0)" xlink:href="#aV"/><use transform="matrix(0.04320987654320986,0,0,0.04320987654320986,20.740740740740733,0)" xlink:href="#aR"/><use transform="matrix(0.04320987654320986,0,0,0.04320987654320986,29.38271604938271,0)" xlink:href="#aS"/><use transform="matrix(0.04320987654320986,0,0,0.04320987654320986,38.02469135802468,0)" xlink:href="#bg"/></g><path fill="#333" d="M212-179c-10-28-35-45-73-45-59 0-87 40-87 99 0 60 29 101 89 101 43 0 62-24 78-52l27 14C228-24 195 4 139 4 59 4 22-46 18-125c-6-104 99-153 187-111 19 9 31 26 39 46" id="bh"/><g id="w"><use transform="matrix(0.04320987654320987,0,0,0.04320987654320987,0,0)" xlink:href="#aK"/><use transform="matrix(0.04320987654320987,0,0,0.04320987654320987,10.370370370370368,0)" xlink:href="#bh"/><use transform="matrix(0.04320987654320987,0,0,0.04320987654320987,21.561728395061724,0)" xlink:href="#aR"/><use transform="matrix(0.04320987654320987,0,0,0.04320987654320987,30.2037037037037,0)" xlink:href="#ba"/></g><g id="x"><use transform="matrix(0.04320987654320986,0,0,0.04320987654320986,0,0)" xlink:href="#aK"/><use transform="matrix(0.04320987654320986,0,0,0.04320987654320986,10.370370370370367,0)" xlink:href="#bf"/><use transform="matrix(0.04320987654320986,0,0,0.04320987654320986,19.83333333333333,0)" xlink:href="#aR"/><use transform="matrix(0.04320987654320986,0,0,0.04320987654320986,28.475308641975303,0)" xlink:href="#aS"/><use transform="matrix(0.04320987654320986,0,0,0.04320987654320986,37.11728395061728,0)" xlink:href="#bb"/></g><g id="y"><use transform="matrix(0.04320987654320987,0,0,0.04320987654320987,0,0)" xlink:href="#aK"/><use transform="matrix(0.04320987654320987,0,0,0.04320987654320987,10.370370370370368,0)" xlink:href="#aQ"/><use transform="matrix(0.04320987654320987,0,0,0.04320987654320987,20.740740740740737,0)" xlink:href="#aR"/><use transform="matrix(0.04320987654320987,0,0,0.04320987654320987,29.382716049382708,0)" xlink:href="#aS"/></g><g id="z"><use transform="matrix(0.04320987654320986,0,0,0.04320987654320986,0,0)" xlink:href="#aK"/><use transform="matrix(0.04320987654320986,0,0,0.04320987654320986,10.370370370370367,0)" xlink:href="#aV"/><use transform="matrix(0.04320987654320986,0,0,0.04320987654320986,20.740740740740733,0)" xlink:href="#aR"/><use transform="matrix(0.04320987654320986,0,0,0.04320987654320986,29.38271604938271,0)" xlink:href="#aS"/><use transform="matrix(0.04320987654320986,0,0,0.04320987654320986,36.85802469135801,0)" xlink:href="#aS"/></g><g id="A"><use transform="matrix(0.04320987654320986,0,0,0.04320987654320986,0,0)" xlink:href="#aK"/><use transform="matrix(0.04320987654320986,0,0,0.04320987654320986,10.370370370370367,0)" xlink:href="#aV"/><use transform="matrix(0.04320987654320986,0,0,0.04320987654320986,20.740740740740733,0)" xlink:href="#aR"/><use transform="matrix(0.04320987654320986,0,0,0.04320987654320986,29.38271604938271,0)" xlink:href="#be"/></g><g id="B"><use transform="matrix(0.04320987654320987,0,0,0.04320987654320987,0,0)" xlink:href="#aU"/><use transform="matrix(0.04320987654320987,0,0,0.04320987654320987,10.370370370370368,0)" xlink:href="#aX"/><use transform="matrix(0.04320987654320987,0,0,0.04320987654320987,22.469135802469133,0)" xlink:href="#aY"/><use transform="matrix(0.04320987654320987,0,0,0.04320987654320987,33.66049382716049,0)" xlink:href="#aZ"/></g><g id="C"><use transform="matrix(0.04320987654320987,0,0,0.04320987654320987,0,0)" xlink:href="#aK"/><use transform="matrix(0.04320987654320987,0,0,0.04320987654320987,10.370370370370368,0)" xlink:href="#bf"/><use transform="matrix(0.04320987654320987,0,0,0.04320987654320987,19.83333333333333,0)" xlink:href="#aR"/><use transform="matrix(0.04320987654320987,0,0,0.04320987654320987,28.475308641975303,0)" xlink:href="#aS"/><use transform="matrix(0.04320987654320987,0,0,0.04320987654320987,37.11728395061728,0)" xlink:href="#bg"/></g><path fill="#333" d="M137 0h-34L2-248h35l83 218 83-218h36" id="bi"/><g id="D"><use transform="matrix(0.04320987654320987,0,0,0.04320987654320987,0,0)" xlink:href="#aU"/><use transform="matrix(0.04320987654320987,0,0,0.04320987654320987,9.203703703703702,0)" xlink:href="#bi"/><use transform="matrix(0.04320987654320987,0,0,0.04320987654320987,19.57407407407407,0)" xlink:href="#aZ"/><use transform="matrix(0.04320987654320987,0,0,0.04320987654320987,30.765432098765427,0)" xlink:href="#aZ"/></g><g id="E"><use transform="matrix(0.04320987654320986,0,0,0.04320987654320986,0,0)" xlink:href="#aK"/><use transform="matrix(0.04320987654320986,0,0,0.04320987654320986,10.370370370370367,0)" xlink:href="#aV"/><use transform="matrix(0.04320987654320986,0,0,0.04320987654320986,20.740740740740733,0)" xlink:href="#aR"/><use transform="matrix(0.04320987654320986,0,0,0.04320987654320986,29.38271604938271,0)" xlink:href="#aT"/></g><g id="F"><use transform="matrix(0.04320987654320986,0,0,0.04320987654320986,0,0)" xlink:href="#aK"/><use transform="matrix(0.04320987654320986,0,0,0.04320987654320986,10.370370370370367,0)" xlink:href="#aQ"/><use transform="matrix(0.04320987654320986,0,0,0.04320987654320986,20.740740740740733,0)" xlink:href="#aR"/><use transform="matrix(0.04320987654320986,0,0,0.04320987654320986,29.38271604938271,0)" xlink:href="#aS"/><use transform="matrix(0.04320987654320986,0,0,0.04320987654320986,38.02469135802468,0)" xlink:href="#bb"/></g><g id="G"><use transform="matrix(0.04320987654320986,0,0,0.04320987654320986,0,0)" xlink:href="#aK"/><use transform="matrix(0.04320987654320986,0,0,0.04320987654320986,10.370370370370367,0)" xlink:href="#bf"/><use transform="matrix(0.04320987654320986,0,0,0.04320987654320986,19.83333333333333,0)" xlink:href="#aR"/><use transform="matrix(0.04320987654320986,0,0,0.04320987654320986,28.475308641975303,0)" xlink:href="#aS"/><use transform="matrix(0.04320987654320986,0,0,0.04320987654320986,37.11728395061728,0)" xlink:href="#ba"/></g><g id="H"><use transform="matrix(0.04320987654320986,0,0,0.04320987654320986,0,0)" xlink:href="#aK"/><use transform="matrix(0.04320987654320986,0,0,0.04320987654320986,10.370370370370367,0)" xlink:href="#aZ"/><use transform="matrix(0.04320987654320986,0,0,0.04320987654320986,21.56172839506172,0)" xlink:href="#aR"/><use transform="matrix(0.04320987654320986,0,0,0.04320987654320986,30.2037037037037,0)" xlink:href="#aS"/><use transform="matrix(0.04320987654320986,0,0,0.04320987654320986,38.84567901234567,0)" xlink:href="#aW"/></g><g id="I"><use transform="matrix(0.04320987654320987,0,0,0.04320987654320987,0,0)" xlink:href="#aK"/><use transform="matrix(0.04320987654320987,0,0,0.04320987654320987,10.370370370370368,0)" xlink:href="#aQ"/><use transform="matrix(0.04320987654320987,0,0,0.04320987654320987,20.740740740740737,0)" xlink:href="#aR"/><use transform="matrix(0.04320987654320987,0,0,0.04320987654320987,29.382716049382708,0)" xlink:href="#bb"/></g><g id="J"><use transform="matrix(0.04320987654320986,0,0,0.04320987654320986,0,0)" xlink:href="#aK"/><use transform="matrix(0.04320987654320986,0,0,0.04320987654320986,10.370370370370367,0)" xlink:href="#aZ"/><use transform="matrix(0.04320987654320986,0,0,0.04320987654320986,21.56172839506172,0)" xlink:href="#aR"/><use transform="matrix(0.04320987654320986,0,0,0.04320987654320986,30.2037037037037,0)" xlink:href="#aS"/><use transform="matrix(0.04320987654320986,0,0,0.04320987654320986,38.84567901234567,0)" xlink:href="#bb"/></g><g id="K"><use transform="matrix(0.04320987654320987,0,0,0.04320987654320987,0,0)" xlink:href="#aK"/><use transform="matrix(0.04320987654320987,0,0,0.04320987654320987,9.203703703703702,0)" xlink:href="#aU"/><use transform="matrix(0.04320987654320987,0,0,0.04320987654320987,19.57407407407407,0)" xlink:href="#aR"/><use transform="matrix(0.04320987654320987,0,0,0.04320987654320987,28.216049382716044,0)" xlink:href="#bb"/></g><g id="L"><use transform="matrix(0.04320987654320986,0,0,0.04320987654320986,0,0)" xlink:href="#aK"/><use transform="matrix(0.04320987654320986,0,0,0.04320987654320986,9.2037037037037,0)" xlink:href="#aU"/><use transform="matrix(0.04320987654320986,0,0,0.04320987654320986,19.57407407407407,0)" xlink:href="#aR"/><use transform="matrix(0.04320987654320986,0,0,0.04320987654320986,28.216049382716044,0)" xlink:href="#bc"/></g><g id="M"><use transform="matrix(0.04320987654320987,0,0,0.04320987654320987,0,0)" xlink:href="#aK"/><use transform="matrix(0.04320987654320987,0,0,0.04320987654320987,10.370370370370368,0)" xlink:href="#aQ"/><use transform="matrix(0.04320987654320987,0,0,0.04320987654320987,20.740740740740737,0)" xlink:href="#aR"/><use transform="matrix(0.04320987654320987,0,0,0.04320987654320987,29.382716049382708,0)" xlink:href="#bg"/></g><path fill="#333" d="M110-160c48 1 74 30 74 79 0 53-28 85-80 85-65 0-83-55-86-122-5-90 50-162 133-122 14 7 22 21 27 39l-31 6c-5-40-67-38-82-6-9 19-15 44-15 74 11-20 30-34 60-33zm-7 138c34 0 49-23 49-58s-16-56-50-56c-29 0-50 16-49 49 1 36 15 65 50 65" id="bj"/><g id="N"><use transform="matrix(0.04320987654320986,0,0,0.04320987654320986,0,0)" xlink:href="#aK"/><use transform="matrix(0.04320987654320986,0,0,0.04320987654320986,9.2037037037037,0)" xlink:href="#aU"/><use transform="matrix(0.04320987654320986,0,0,0.04320987654320986,19.57407407407407,0)" xlink:href="#aR"/><use transform="matrix(0.04320987654320986,0,0,0.04320987654320986,28.216049382716044,0)" xlink:href="#bj"/></g><g id="O"><use transform="matrix(0.04320987654320987,0,0,0.04320987654320987,0,0)" xlink:href="#aK"/><use transform="matrix(0.04320987654320987,0,0,0.04320987654320987,10.370370370370368,0)" xlink:href="#aQ"/><use transform="matrix(0.04320987654320987,0,0,0.04320987654320987,20.740740740740737,0)" xlink:href="#aR"/><use transform="matrix(0.04320987654320987,0,0,0.04320987654320987,29.382716049382708,0)" xlink:href="#aW"/></g><g id="P"><use transform="matrix(0.04320987654320986,0,0,0.04320987654320986,0,0)" xlink:href="#aK"/><use transform="matrix(0.04320987654320986,0,0,0.04320987654320986,9.2037037037037,0)" xlink:href="#aU"/><use transform="matrix(0.04320987654320986,0,0,0.04320987654320986,19.57407407407407,0)" xlink:href="#aR"/><use transform="matrix(0.04320987654320986,0,0,0.04320987654320986,28.216049382716044,0)" xlink:href="#aW"/></g><g id="Q"><use transform="matrix(0.04320987654320986,0,0,0.04320987654320986,0,0)" xlink:href="#aU"/><use transform="matrix(0.04320987654320986,0,0,0.04320987654320986,9.2037037037037,0)" xlink:href="#bi"/><use transform="matrix(0.04320987654320986,0,0,0.04320987654320986,19.57407407407407,0)" xlink:href="#aZ"/><use transform="matrix(0.04320987654320986,0,0,0.04320987654320986,30.765432098765427,0)" xlink:href="#aZ"/></g><g id="R"><use transform="matrix(0.04320987654320987,0,0,0.04320987654320987,0,0)" xlink:href="#aK"/><use transform="matrix(0.04320987654320987,0,0,0.04320987654320987,10.370370370370368,0)" xlink:href="#aQ"/><use transform="matrix(0.04320987654320987,0,0,0.04320987654320987,20.740740740740737,0)" xlink:href="#aR"/><use transform="matrix(0.04320987654320987,0,0,0.04320987654320987,29.382716049382708,0)" xlink:href="#aS"/><use transform="matrix(0.04320987654320987,0,0,0.04320987654320987,38.02469135802468,0)" xlink:href="#ba"/></g><g id="S"><use transform="matrix(0.04320987654320987,0,0,0.04320987654320987,0,0)" xlink:href="#aK"/><use transform="matrix(0.04320987654320987,0,0,0.04320987654320987,10.370370370370368,0)" xlink:href="#aQ"/><use transform="matrix(0.04320987654320987,0,0,0.04320987654320987,20.740740740740737,0)" xlink:href="#aR"/><use transform="matrix(0.04320987654320987,0,0,0.04320987654320987,29.382716049382708,0)" xlink:href="#aS"/><use transform="matrix(0.04320987654320987,0,0,0.04320987654320987,38.02469135802468,0)" xlink:href="#bg"/></g><g id="T"><use transform="matrix(0.04320987654320986,0,0,0.04320987654320986,0,0)" xlink:href="#aK"/><use transform="matrix(0.04320987654320986,0,0,0.04320987654320986,10.370370370370367,0)" xlink:href="#aQ"/><use transform="matrix(0.04320987654320986,0,0,0.04320987654320986,20.740740740740733,0)" xlink:href="#aR"/><use transform="matrix(0.04320987654320986,0,0,0.04320987654320986,29.38271604938271,0)" xlink:href="#be"/></g><g id="U"><use transform="matrix(0.04320987654320987,0,0,0.04320987654320987,0,0)" xlink:href="#aK"/><use transform="matrix(0.04320987654320987,0,0,0.04320987654320987,10.370370370370368,0)" xlink:href="#aQ"/><use transform="matrix(0.04320987654320987,0,0,0.04320987654320987,20.740740740740737,0)" xlink:href="#aR"/><use transform="matrix(0.04320987654320987,0,0,0.04320987654320987,29.382716049382708,0)" xlink:href="#aS"/><use transform="matrix(0.04320987654320987,0,0,0.04320987654320987,38.02469135802468,0)" xlink:href="#aW"/></g><g id="V"><use transform="matrix(0.04320987654320987,0,0,0.04320987654320987,0,0)" xlink:href="#aK"/><use transform="matrix(0.04320987654320987,0,0,0.04320987654320987,10.370370370370368,0)" xlink:href="#aQ"/><use transform="matrix(0.04320987654320987,0,0,0.04320987654320987,20.740740740740737,0)" xlink:href="#aR"/><use transform="matrix(0.04320987654320987,0,0,0.04320987654320987,29.382716049382708,0)" xlink:href="#bd"/></g><g id="W"><use transform="matrix(0.04320987654320987,0,0,0.04320987654320987,0,0)" xlink:href="#aK"/><use transform="matrix(0.04320987654320987,0,0,0.04320987654320987,10.370370370370368,0)" xlink:href="#bh"/><use transform="matrix(0.04320987654320987,0,0,0.04320987654320987,21.561728395061724,0)" xlink:href="#aR"/><use transform="matrix(0.04320987654320987,0,0,0.04320987654320987,30.2037037037037,0)" xlink:href="#bj"/></g><g id="X"><use transform="matrix(0.06172839506172839,0,0,0.06172839506172839,0,0)" xlink:href="#bh"/><use transform="matrix(0.06172839506172839,0,0,0.06172839506172839,15.987654320987653,0)" xlink:href="#aY"/><use transform="matrix(0.06172839506172839,0,0,0.06172839506172839,31.975308641975307,0)" xlink:href="#bc"/></g><g id="Y"><use transform="matrix(0.06172839506172839,0,0,0.06172839506172839,0,0)" xlink:href="#bh"/><use transform="matrix(0.06172839506172839,0,0,0.06172839506172839,15.987654320987653,0)" xlink:href="#aY"/><use transform="matrix(0.06172839506172839,0,0,0.06172839506172839,31.975308641975307,0)" xlink:href="#aS"/><use transform="matrix(0.06172839506172839,0,0,0.06172839506172839,44.32098765432099,0)" xlink:href="#aT"/></g><path fill="#333" d="M127-220V0H93v-220H8v-28h204v28h-85" id="bk"/><path fill="#333" d="M141 0L90-78 38 0H4l68-98-65-92h35l48 74 47-74h35l-64 92 68 98h-35" id="bl"/><path fill="#333" d="M59-47c-2 24 18 29 38 22v24C64 9 27 4 27-40v-127H5v-23h24l9-43h21v43h35v23H59v120" id="bm"/><g id="Z"><use transform="matrix(0.06172839506172839,0,0,0.06172839506172839,0,0)" xlink:href="#bk"/><use transform="matrix(0.06172839506172839,0,0,0.06172839506172839,11.049382716049381,0)" xlink:href="#aO"/><use transform="matrix(0.06172839506172839,0,0,0.06172839506172839,23.39506172839506,0)" xlink:href="#bl"/><use transform="matrix(0.06172839506172839,0,0,0.06172839506172839,34.50617283950617,0)" xlink:href="#bm"/></g><g id="aa"><use transform="matrix(0.06172839506172839,0,0,0.06172839506172839,0,0)" xlink:href="#aS"/><use transform="matrix(0.06172839506172839,0,0,0.06172839506172839,12.345679012345679,0)" xlink:href="#bd"/><use transform="matrix(0.06172839506172839,0,0,0.06172839506172839,24.691358024691358,0)" xlink:href="#aT"/><use transform="matrix(0.06172839506172839,0,0,0.06172839506172839,37.03703703703704,0)" xlink:href="#ba"/></g><path fill="#333" d="M30 0v-248h33v221h125V0H30" id="bn"/><g id="ab"><use transform="matrix(0.06172839506172839,0,0,0.06172839506172839,0,0)" xlink:href="#bn"/><use transform="matrix(0.06172839506172839,0,0,0.06172839506172839,12.345679012345679,0)" xlink:href="#bh"/><use transform="matrix(0.06172839506172839,0,0,0.06172839506172839,28.333333333333332,0)" xlink:href="#aZ"/></g><path fill="#333" d="M266 0h-40l-56-210L115 0H75L2-248h35L96-30l15-64 43-154h32l59 218 59-218h35" id="bo"/><path fill="#333" d="M233-177c-1 41-23 64-60 70L243 0h-38l-65-103H63V0H30v-248c88 3 205-21 203 71zM63-129c60-2 137 13 137-47 0-61-80-42-137-45v92" id="bp"/><g id="ac"><use transform="matrix(0.04320987654320986,0,0,0.04320987654320986,0,0)" xlink:href="#aK"/><use transform="matrix(0.04320987654320986,0,0,0.04320987654320986,10.370370370370367,0)" xlink:href="#bo"/><use transform="matrix(0.04320987654320986,0,0,0.04320987654320986,25.018518518518515,0)" xlink:href="#bp"/></g><path fill="#fff" d="M143 4C61 4 22-44 18-125c-5-107 100-154 193-111 17 8 29 25 37 43l-32 9c-13-25-37-40-76-40-61 0-88 39-88 99 0 61 29 100 91 101 35 0 62-11 79-27v-45h-74v-28h105v86C228-13 192 4 143 4" id="bq"/><path fill="#fff" d="M190 0L58-211 59 0H30v-248h39L202-35l-2-213h31V0h-41" id="br"/><path fill="#fff" d="M30-248c118-7 216 8 213 122C240-48 200 0 122 0H30v-248zM63-27c89 8 146-16 146-99s-60-101-146-95v194" id="bs"/><g id="ad"><use transform="matrix(0.04320987654320986,0,0,0.04320987654320986,0,0)" xlink:href="#bq"/><use transform="matrix(0.04320987654320986,0,0,0.04320987654320986,12.09876543209876,0)" xlink:href="#br"/><use transform="matrix(0.04320987654320986,0,0,0.04320987654320986,23.290123456790116,0)" xlink:href="#bs"/></g><path fill="#333" d="M185-189c-5-48-123-54-124 2 14 75 158 14 163 119 3 78-121 87-175 55-17-10-28-26-33-46l33-7c5 56 141 63 141-1 0-78-155-14-162-118-5-82 145-84 179-34 5 7 8 16 11 25" id="bt"/><g id="ae"><use transform="matrix(0.04320987654320986,0,0,0.04320987654320986,0,0)" xlink:href="#bt"/><use transform="matrix(0.04320987654320986,0,0,0.04320987654320986,10.370370370370367,0)" xlink:href="#bh"/><use transform="matrix(0.04320987654320986,0,0,0.04320987654320986,21.56172839506172,0)" xlink:href="#bn"/></g><g id="af"><use transform="matrix(0.04320987654320986,0,0,0.04320987654320986,0,0)" xlink:href="#bt"/><use transform="matrix(0.04320987654320986,0,0,0.04320987654320986,10.370370370370367,0)" xlink:href="#aZ"/><use transform="matrix(0.04320987654320986,0,0,0.04320987654320986,21.56172839506172,0)" xlink:href="#aU"/></g><path fill="#fff" d="M27 0v-27h64v-190l-56 39v-29l58-41h29v221h61V0H27" id="bu"/><use transform="matrix(0.07407407407407407,0,0,0.07407407407407407,0,0)" xlink:href="#bu" id="ag"/><path fill="#fff" d="M101-251c82-7 93 87 43 132L82-64C71-53 59-42 53-27h129V0H18c2-99 128-94 128-182 0-28-16-43-45-43s-46 15-49 41l-32-3c6-41 34-60 81-64" id="bv"/><use transform="matrix(0.07407407407407407,0,0,0.07407407407407407,0,0)" xlink:href="#bv" id="ah"/><path fill="#fff" d="M126-127c33 6 58 20 58 59 0 88-139 92-164 29-3-8-5-16-6-25l32-3c6 27 21 44 54 44 32 0 52-15 52-46 0-38-36-46-79-43v-28c39 1 72-4 72-42 0-27-17-43-46-43-28 0-47 15-49 41l-32-3c6-42 35-63 81-64 48-1 79 21 79 65 0 36-21 52-52 59" id="bw"/><use transform="matrix(0.07407407407407407,0,0,0.07407407407407407,0,0)" xlink:href="#bw" id="ai"/><path fill="#fff" d="M205 0l-28-72H64L36 0H1l101-248h38L239 0h-34zm-38-99l-47-123c-12 45-31 82-46 123h93" id="bx"/><use transform="matrix(0.07407407407407407,0,0,0.07407407407407407,0,0)" xlink:href="#bx" id="aj"/><path fill="#fff" d="M155-56V0h-30v-56H8v-25l114-167h33v167h35v25h-35zm-30-156c-27 46-58 90-88 131h88v-131" id="by"/><use transform="matrix(0.07407407407407407,0,0,0.07407407407407407,0,0)" xlink:href="#by" id="ak"/><path fill="#fff" d="M54-142c48-35 137-8 131 61C196 18 31 33 14-55l32-4c7 23 22 37 52 37 35-1 51-22 54-58 4-55-73-65-99-34H22l8-134h141v27H59" id="bz"/><use transform="matrix(0.07407407407407407,0,0,0.07407407407407407,0,0)" xlink:href="#bz" id="al"/><path fill="#fff" d="M110-160c48 1 74 30 74 79 0 53-28 85-80 85-65 0-83-55-86-122-5-90 50-162 133-122 14 7 22 21 27 39l-31 6c-5-40-67-38-82-6-9 19-15 44-15 74 11-20 30-34 60-33zm-7 138c34 0 49-23 49-58s-16-56-50-56c-29 0-50 16-49 49 1 36 15 65 50 65" id="bA"/><use transform="matrix(0.07407407407407407,0,0,0.07407407407407407,0,0)" xlink:href="#bA" id="am"/><path fill="#fff" d="M160-131c35 5 61 23 61 61C221 17 115-2 30 0v-248c76 3 177-17 177 60 0 33-19 50-47 57zm-97-11c50-1 110 9 110-42 0-47-63-36-110-37v79zm0 115c55-2 124 14 124-45 0-56-70-42-124-44v89" id="bB"/><use transform="matrix(0.07407407407407407,0,0,0.07407407407407407,0,0)" xlink:href="#bB" id="an"/><path fill="#fff" d="M64 0c3-98 48-159 88-221H18v-27h164v26C143-157 98-101 97 0H64" id="bC"/><use transform="matrix(0.07407407407407407,0,0,0.07407407407407407,0,0)" xlink:href="#bC" id="ao"/><path fill="#fff" d="M134-131c28 9 52 24 51 62-1 50-34 73-85 73S17-19 16-69c0-36 21-54 49-61-75-25-45-126 34-121 46 3 78 18 79 63 0 33-17 51-44 57zm-34-11c31 1 46-15 46-44 0-28-17-43-47-42-29 0-46 13-45 42 1 28 16 44 46 44zm1 122c35 0 51-18 51-52 0-30-18-46-53-46-33 0-51 17-51 47 0 34 19 51 53 51" id="bD"/><use transform="matrix(0.07407407407407407,0,0,0.07407407407407407,0,0)" xlink:href="#bD" id="ap"/><path fill="#fff" d="M99-251c64 0 84 50 84 122C183-37 130 33 47-8c-14-7-20-23-25-40l30-5c6 39 69 39 84 7 9-19 16-44 16-74-10 22-31 35-62 35-49 0-73-33-73-83 0-54 28-83 82-83zm-1 141c31-1 51-18 51-49 0-36-14-67-51-67-34 0-49 23-49 58 0 34 15 58 49 58" id="bE"/><use transform="matrix(0.07407407407407407,0,0,0.07407407407407407,0,0)" xlink:href="#bE" id="aq"/><path fill="#fff" d="M212-179c-10-28-35-45-73-45-59 0-87 40-87 99 0 60 29 101 89 101 43 0 62-24 78-52l27 14C228-24 195 4 139 4 59 4 22-46 18-125c-6-104 99-153 187-111 19 9 31 26 39 46" id="bF"/><use transform="matrix(0.07407407407407407,0,0,0.07407407407407407,0,0)" xlink:href="#bF" id="ar"/><path fill="#fff" d="M80-196l47-18 7 23-49 13 32 44-20 13-27-46-27 45-21-12 33-44-49-13 8-23 47 19-2-53h23" id="bG"/><use transform="matrix(0.07407407407407407,0,0,0.07407407407407407,0,0)" xlink:href="#bG" id="as"/><path fill="#fff" d="M101-251c68 0 85 55 85 127S166 4 100 4C33 4 14-52 14-124c0-73 17-127 87-127zm-1 229c47 0 54-49 54-102s-4-102-53-102c-51 0-55 48-55 102 0 53 5 102 54 102" id="bH"/><use transform="matrix(0.07407407407407407,0,0,0.07407407407407407,0,0)" xlink:href="#bH" id="at"/><path fill="#fff" d="M158-156l-14 65h45v19h-49L124 0h-19l15-72H56L41 0H22l15-72H2v-19h39l14-65H11v-19h48l15-71h20l-16 71h64l16-71h19l-16 71h37v19h-40zm-83 0L61-91h63l14-65H75" id="bI"/><use transform="matrix(0.07407407407407407,0,0,0.07407407407407407,0,0)" xlink:href="#bI" id="au"/><use transform="matrix(0.07407407407407407,0,0,0.07407407407407407,0,0)" xlink:href="#bs" id="av"/><use transform="matrix(0.06172839506172839,0,0,0.06172839506172839,0,0)" xlink:href="#bD" id="aw"/><use transform="matrix(0.06172839506172839,0,0,0.06172839506172839,0,0)" xlink:href="#bC" id="ax"/><use transform="matrix(0.06172839506172839,0,0,0.06172839506172839,0,0)" xlink:href="#bA" id="ay"/><use transform="matrix(0.06172839506172839,0,0,0.06172839506172839,0,0)" xlink:href="#bz" id="az"/><use transform="matrix(0.06172839506172839,0,0,0.06172839506172839,0,0)" xlink:href="#bb" id="aA"/><use transform="matrix(0.06172839506172839,0,0,0.06172839506172839,0,0)" xlink:href="#bw" id="aB"/><use transform="matrix(0.06172839506172839,0,0,0.06172839506172839,0,0)" xlink:href="#bv" id="aC"/><use transform="matrix(0.06172839506172839,0,0,0.06172839506172839,0,0)" xlink:href="#bu" id="aD"/><g id="aE"><use transform="matrix(0.06172839506172839,0,0,0.06172839506172839,0,0)" xlink:href="#ba"/><use transform="matrix(0.06172839506172839,0,0,0.06172839506172839,12.345679012345679,0)" xlink:href="#ba"/><use transform="matrix(0.06172839506172839,0,0,0.06172839506172839,24.691358024691358,0)" xlink:href="#aT"/></g><path fill="#333" d="M20-141c0-71 41-110 114-110s115 39 115 110c0 61-35 92-75 116l80-2V0H150v-39c35-20 64-46 64-100s-27-85-79-85c-54 0-81 31-81 85 0 52 29 80 65 100V0H15v-27l80 2C55-49 20-80 20-141" id="bJ"/><use transform="matrix(0.06172839506172839,0,0,0.06172839506172839,0,0)" xlink:href="#bJ" id="aF"/><g id="aG"><use transform="matrix(0.049382716049382706,0,0,0.049382716049382706,0,0)" xlink:href="#aW"/><use transform="matrix(0.049382716049382706,0,0,0.049382716049382706,9.87654320987654,0)" xlink:href="#bi"/></g><use transform="matrix(0.06172839506172839,0,0,0.06172839506172839,0,0)" xlink:href="#bp" id="aH"/><path fill="#333" d="M194 0L95-120 63-95V0H30v-248h33v124l119-124h40L117-140 236 0h-42" id="bK"/><g id="aI"><use transform="matrix(0.06172839506172839,0,0,0.06172839506172839,0,0)" xlink:href="#aS"/><use transform="matrix(0.06172839506172839,0,0,0.06172839506172839,12.345679012345679,0)" xlink:href="#bK"/></g><use transform="matrix(0.06172839506172839,0,0,0.06172839506172839,0,0)" xlink:href="#bJ" id="aJ"/></defs></g></svg>